<svg xmlns="http://www.w3.org/2000/svg" xmlns:xlink="http://www.w3.org/1999/xlink" viewBox="0 0 662.74 481.69">
  <defs>
    <style>
      .cls-1, .cls-6 {
        fill: none;
      }

      .cls-2 {
        fill: #f25f4c;
      }

      .cls-2, .cls-6 {
        stroke-miterlimit: 10;
      }

      .cls-3 {
        clip-path: url(#clip-path);
      }

      .cls-4 {
        clip-path: url(#clip-path-2);
      }

      .cls-5 {
        fill: #2a2a2a;
      }

      .cls-6 {
        stroke: #000;
      }
    </style>
    <clipPath id="clip-path">
      <rect id="base" class="cls-1" x="279.16" y="0.5" width="196.49" height="196.49"/>
    </clipPath>
    <clipPath id="clip-path-2">
      <rect class="cls-1" x="280.3" y="205.83" width="260.3" height="260.3"/>
    </clipPath>
  </defs>
  <g id="Layer_2" data-name="Layer 2">
    <g id="hero">
      <g id="typography">
        <rect id="base-2" data-name="base" class="cls-2" x="279.16" y="0.5" width="196.49" height="196.49"/>
        <g id="helloworld">
          <g class="cls-3">
            <g>
              <g>
                <path d="M283.29,35.43h-5.84V2.37h5.84Zm24.19-14.26H279.34V16.39h28.14Zm2.92,14.26h-5.79V2.37h5.79Z"/>
                <path d="M329.39,35.93a18.72,18.72,0,0,1-7.68-1.48,11.46,11.46,0,0,1-5.12-4.35,12.6,12.6,0,0,1-1.81-6.9,12.29,12.29,0,0,1,1.81-6.72A12.35,12.35,0,0,1,321.65,12a17.05,17.05,0,0,1,7.63-1.6,18.54,18.54,0,0,1,7.33,1.35,11.11,11.11,0,0,1,4.93,4,11,11,0,0,1,1.75,6.34,11.63,11.63,0,0,1-.05,1.21,9.88,9.88,0,0,1-.16,1.11H318.51v-3h20.73l-1.52,1.83a8,8,0,0,0,.06-1v-1a6,6,0,0,0-2.14-5.06c-1.43-1.1-3.58-1.65-6.47-1.65q-4.82,0-6.87,2a7.82,7.82,0,0,0-2.05,5.83v1.28a7.88,7.88,0,0,0,2.05,5.87q2.06,2,6.93,2,4.22,0,6.08-1.21A3.8,3.8,0,0,0,337.18,27v-.39H343v.44a6.78,6.78,0,0,1-1.75,4.62,11.55,11.55,0,0,1-4.82,3.11A20.64,20.64,0,0,1,329.39,35.93Z"/>
                <path d="M353.52,35.43h-5.84V2.37h5.84Z"/>
                <path d="M364.77,35.43h-5.84V2.37h5.84Z"/>
                <path d="M383.93,35.93a18,18,0,0,1-7.82-1.61,12.38,12.38,0,0,1-5.25-4.49A12,12,0,0,1,369,23.2a12.07,12.07,0,0,1,1.87-6.72A12.53,12.53,0,0,1,376.11,12a20.11,20.11,0,0,1,15.72,0,12.63,12.63,0,0,1,5.22,4.46,12.06,12.06,0,0,1,1.86,6.72,12,12,0,0,1-1.86,6.63,12.48,12.48,0,0,1-5.22,4.49A18.14,18.14,0,0,1,383.93,35.93Zm0-4.74q4.92,0,7.09-2.05a7.8,7.8,0,0,0,2.16-5.94,8,8,0,0,0-2.16-6q-2.17-2.1-7.09-2.1c-3.25,0-5.59.7-7,2.1a8,8,0,0,0-2.16,6,7.8,7.8,0,0,0,2.16,5.94C378.34,30.51,380.68,31.19,383.93,31.19Z"/>
                <path d="M428.62,35.43H420L410.44,2.37h6.49l5.9,20.92,1.62,7h.43l1.95-7,7.31-20.92h8.49l7.79,20.92,2.06,7h.43l1.52-7,5.41-20.92h6.38l-9.09,33.06h-8.6l-7.31-19.24L438.57,7.7h-.48l-2.6,8.49Z"/>
                <path d="M483.43,35.93a18,18,0,0,1-7.82-1.61,12.32,12.32,0,0,1-5.25-4.49,12,12,0,0,1-1.87-6.63,12.07,12.07,0,0,1,1.87-6.72A12.47,12.47,0,0,1,475.61,12a20.11,20.11,0,0,1,15.72,0,12.63,12.63,0,0,1,5.22,4.46,12.06,12.06,0,0,1,1.86,6.72,12,12,0,0,1-1.86,6.63,12.48,12.48,0,0,1-5.22,4.49A18.14,18.14,0,0,1,483.43,35.93Zm0-4.74q4.92,0,7.08-2.05a7.77,7.77,0,0,0,2.17-5.94,8,8,0,0,0-2.17-6q-2.16-2.1-7.08-2.1t-7,2.1a8,8,0,0,0-2.16,6,7.8,7.8,0,0,0,2.16,5.94Q478.55,31.2,483.43,31.19Z"/>
                <path d="M508.48,35.43h-5.85V10.91H508v7l.49.24Zm0-13.76h-1.3V17.52h1.19a9.16,9.16,0,0,1,1.51-3.63,8.07,8.07,0,0,1,3.06-2.54,10.67,10.67,0,0,1,4.68-.93,9.56,9.56,0,0,1,5,1.18,7,7,0,0,1,2.84,3.16,10.18,10.18,0,0,1,.9,4.29v3.21H520.6V20.09a5.18,5.18,0,0,0-1.3-3.9C518.43,15.37,517,15,515,15q-3.47,0-5,1.72A7.35,7.35,0,0,0,508.48,21.67Z"/>
                <path d="M535.91,35.43h-5.84V2.37h5.84Z"/>
                <path d="M553.17,35.93A14.91,14.91,0,0,1,546,34.32a10.64,10.64,0,0,1-4.47-4.49A14,14,0,0,1,540,23.2a14.18,14.18,0,0,1,1.51-6.72A10.87,10.87,0,0,1,545.86,12a14,14,0,0,1,6.93-1.6,12.47,12.47,0,0,1,7.52,2,9.08,9.08,0,0,1,3.57,5.13h1.35v5.48h-1a7.06,7.06,0,0,0-2.44-5.85q-2.43-1.95-6.92-1.95A13.81,13.81,0,0,0,550,16a5.93,5.93,0,0,0-3.11,2.49,9,9,0,0,0-1.06,4.69,8.84,8.84,0,0,0,1.06,4.63A5.76,5.76,0,0,0,550,30.3,14.64,14.64,0,0,0,555,31a13.67,13.67,0,0,0,5-.81,6.54,6.54,0,0,0,3.19-2.54,7.7,7.7,0,0,0,1.11-4.25h1l.38,4.94h-1.3a8.76,8.76,0,0,1-3.7,5.6A13.06,13.06,0,0,1,553.17,35.93Zm16.88-.5h-5.36V27.74l-.48-.65V2.37h5.84Z"/>
              </g>
              <g>
                <path d="M290.68,68.51h-5.79V35.45h5.79Zm-27.11,0h-5.84V35.45h5.84Zm24.19-14.26H259.62V49.46h28.14Z"/>
                <path d="M309.67,69A18.56,18.56,0,0,1,302,67.52a11.3,11.3,0,0,1-5.11-4.34,12.64,12.64,0,0,1-1.82-6.91,11.91,11.91,0,0,1,6.88-11.17,17,17,0,0,1,7.62-1.61,18.62,18.62,0,0,1,7.34,1.36,10.51,10.51,0,0,1,6.68,10.29,11.53,11.53,0,0,1-.06,1.21,9.88,9.88,0,0,1-.16,1.11H298.8v-3h20.72L318,56.32a8,8,0,0,0,.06-1v-1a6,6,0,0,0-2.14-5.06c-1.42-1.1-3.58-1.65-6.46-1.65q-4.83,0-6.88,2a7.81,7.81,0,0,0-2.05,5.82v1.29a7.88,7.88,0,0,0,2.05,5.87q2.06,2,6.93,2,4.22,0,6.09-1.21a3.81,3.81,0,0,0,1.86-3.38v-.39h5.85v.44a6.76,6.76,0,0,1-1.76,4.61,11.39,11.39,0,0,1-4.82,3.11A20.64,20.64,0,0,1,309.67,69Z"/>
                <rect x="327.96" y="35.45" width="5.84" height="33.06"/>
                <rect x="339.21" y="35.45" width="5.84" height="33.06"/>
                <path d="M364.21,64.27c3.28,0,5.64-.69,7.09-2a7.82,7.82,0,0,0,2.16-5.95,8,8,0,0,0-2.16-6q-2.18-2.1-7.09-2.1t-7,2.1a7.94,7.94,0,0,0-2.17,6,7.79,7.79,0,0,0,2.17,5.95C358.62,63.58,361,64.27,364.21,64.27Zm0,4.73a18.06,18.06,0,0,1-7.82-1.6,12.51,12.51,0,0,1-5.25-4.49,12.91,12.91,0,0,1,0-13.35,12.59,12.59,0,0,1,5.25-4.46,20,20,0,0,1,15.72,0,12.5,12.5,0,0,1,5.22,4.46,12.85,12.85,0,0,1,0,13.35,12.43,12.43,0,0,1-5.22,4.49A18.14,18.14,0,0,1,364.21,69Z"/>
                <polygon points="408.9 68.51 400.3 68.51 390.72 35.45 397.21 35.45 403.11 56.37 404.73 63.38 405.17 63.38 407.12 56.37 414.42 35.45 422.91 35.45 430.71 56.37 432.76 63.38 433.19 63.38 434.71 56.37 440.12 35.45 446.5 35.45 437.42 68.51 428.81 68.51 421.51 49.27 418.86 40.78 418.37 40.78 415.77 49.27 408.9 68.51"/>
                <path d="M463.71,64.27c3.28,0,5.64-.69,7.09-2A7.82,7.82,0,0,0,473,56.27a8,8,0,0,0-2.16-6q-2.18-2.1-7.09-2.1t-7,2.1a7.94,7.94,0,0,0-2.17,6,7.79,7.79,0,0,0,2.17,5.95C458.12,63.58,460.46,64.27,463.71,64.27Zm0,4.73a18.06,18.06,0,0,1-7.82-1.6,12.51,12.51,0,0,1-5.25-4.49,12.91,12.91,0,0,1,0-13.35,12.59,12.59,0,0,1,5.25-4.46,20,20,0,0,1,15.72,0,12.5,12.5,0,0,1,5.22,4.46,12.85,12.85,0,0,1,0,13.35,12.43,12.43,0,0,1-5.22,4.49A18.14,18.14,0,0,1,463.71,69Z"/>
                <path d="M488.76,54.74h-1.3V50.6h1.19A9,9,0,0,1,490.17,47a7.88,7.88,0,0,1,3.05-2.54,10.7,10.7,0,0,1,4.68-.94,9.59,9.59,0,0,1,5,1.19,7.1,7.1,0,0,1,2.84,3.16,10.33,10.33,0,0,1,.89,4.29v3.21h-5.79V53.16a5.13,5.13,0,0,0-1.3-3.89c-.86-.83-2.31-1.24-4.33-1.24q-3.47,0-5,1.73A7.32,7.32,0,0,0,488.76,54.74Zm0,13.77h-5.84V44h5.35v6.95l.49.25Z"/>
                <rect x="510.35" y="35.45" width="5.84" height="33.06"/>
                <path d="M550.33,68.51H545v-7.7l-.49-.64V35.45h5.84ZM533.45,69a14.91,14.91,0,0,1-7.22-1.6,10.69,10.69,0,0,1-4.47-4.49,14.07,14.07,0,0,1-1.51-6.64,14.16,14.16,0,0,1,1.51-6.71,10.84,10.84,0,0,1,4.39-4.46,14,14,0,0,1,6.92-1.61,12.45,12.45,0,0,1,7.52,2,9.08,9.08,0,0,1,3.57,5.13h1.36v5.48h-1a7,7,0,0,0-2.44-5.85q-2.43-2-6.92-2a13.82,13.82,0,0,0-4.82.76,5.9,5.9,0,0,0-3.11,2.5,9,9,0,0,0-1.05,4.68,8.88,8.88,0,0,0,1.05,4.64,5.85,5.85,0,0,0,3.11,2.47,14.66,14.66,0,0,0,4.93.74,13.44,13.44,0,0,0,5-.82,6.44,6.44,0,0,0,3.19-2.54,7.67,7.67,0,0,0,1.11-4.24h1l.38,4.93h-1.3a8.72,8.72,0,0,1-3.71,5.6A13.06,13.06,0,0,1,533.45,69Z"/>
              </g>
              <g>
                <path d="M265.23,101.59h-5.79V68.53h5.79Zm-27.11,0h-5.84V68.53h5.84Zm24.19-14.26H234.17V82.54h28.14Z"/>
                <path d="M284.22,102.08a18.56,18.56,0,0,1-7.68-1.48,11.44,11.44,0,0,1-5.12-4.34,12.64,12.64,0,0,1-1.81-6.91,11.9,11.9,0,0,1,6.87-11.18,17.19,17.19,0,0,1,7.63-1.6,18.36,18.36,0,0,1,7.33,1.36,10.45,10.45,0,0,1,6.68,10.29,11.43,11.43,0,0,1-.05,1.2c0,.38-.09.75-.16,1.11H273.34v-3h20.73l-1.52,1.83a8,8,0,0,0,.06-1v-1a6,6,0,0,0-2.14-5.06c-1.43-1.1-3.58-1.66-6.47-1.66q-4.81,0-6.87,2a7.81,7.81,0,0,0-2.05,5.82v1.28a7.89,7.89,0,0,0,2.05,5.88c1.37,1.34,3.68,2,6.93,2q4.21,0,6.08-1.21A3.81,3.81,0,0,0,292,93.2v-.4h5.84v.45a6.77,6.77,0,0,1-1.75,4.61,11.55,11.55,0,0,1-4.82,3.11A20.64,20.64,0,0,1,284.22,102.08Z"/>
                <rect x="302.51" y="68.53" width="5.84" height="33.06"/>
                <rect x="313.76" y="68.53" width="5.84" height="33.06"/>
                <path d="M338.76,97.34q4.92,0,7.08-2a7.79,7.79,0,0,0,2.17-6,8,8,0,0,0-2.17-6q-2.16-2.09-7.08-2.09c-3.25,0-5.59.7-7,2.09a8,8,0,0,0-2.16,6,7.82,7.82,0,0,0,2.16,6C333.17,96.66,335.51,97.34,338.76,97.34Zm0,4.74a18,18,0,0,1-7.82-1.6A12.39,12.39,0,0,1,325.69,96a12.85,12.85,0,0,1,0-13.35,12.42,12.42,0,0,1,5.25-4.47,20.11,20.11,0,0,1,15.72,0,12.58,12.58,0,0,1,5.22,4.47,12.91,12.91,0,0,1,0,13.35,12.55,12.55,0,0,1-5.22,4.49A18.14,18.14,0,0,1,338.76,102.08Z"/>
                <polygon points="383.45 101.59 374.85 101.59 365.27 68.53 371.76 68.53 377.66 89.45 379.28 96.46 379.71 96.46 381.66 89.45 388.97 68.53 397.46 68.53 405.25 89.45 407.31 96.46 407.74 96.46 409.26 89.45 414.67 68.53 421.05 68.53 411.96 101.59 403.36 101.59 396.06 82.34 393.4 73.86 392.92 73.86 390.32 82.34 383.45 101.59"/>
                <path d="M438.26,97.34q4.92,0,7.08-2a7.79,7.79,0,0,0,2.17-6,8,8,0,0,0-2.17-6q-2.16-2.09-7.08-2.09c-3.25,0-5.59.7-7,2.09a8,8,0,0,0-2.16,6,7.82,7.82,0,0,0,2.16,6C432.67,96.66,435,97.34,438.26,97.34Zm0,4.74a18,18,0,0,1-7.82-1.6A12.39,12.39,0,0,1,425.19,96a12.85,12.85,0,0,1,0-13.35,12.42,12.42,0,0,1,5.25-4.47,20.11,20.11,0,0,1,15.72,0,12.58,12.58,0,0,1,5.22,4.47,12.91,12.91,0,0,1,0,13.35,12.55,12.55,0,0,1-5.22,4.49A18.14,18.14,0,0,1,438.26,102.08Z"/>
                <path d="M463.31,87.82H462V83.68h1.19a9.16,9.16,0,0,1,1.51-3.63,7.89,7.89,0,0,1,3.06-2.54,10.53,10.53,0,0,1,4.68-.94,9.65,9.65,0,0,1,5,1.18,7,7,0,0,1,2.84,3.16,10.26,10.26,0,0,1,.9,4.3v3.2h-5.79V86.24a5.21,5.21,0,0,0-1.3-3.9c-.87-.82-2.31-1.23-4.33-1.23q-3.46,0-5,1.73A7.32,7.32,0,0,0,463.31,87.82Zm0,13.77h-5.85V77.06h5.36v7l.49.25Z"/>
                <rect x="484.89" y="68.53" width="5.84" height="33.06"/>
                <path d="M524.88,101.59h-5.36v-7.7l-.48-.64V68.53h5.84Zm-16.88.49a15,15,0,0,1-7.23-1.6A10.73,10.73,0,0,1,496.31,96a15.51,15.51,0,0,1,0-13.35,10.84,10.84,0,0,1,4.38-4.47,14.11,14.11,0,0,1,6.93-1.6,12.54,12.54,0,0,1,7.52,2,9.07,9.07,0,0,1,3.57,5.14h1.35V89.2h-1a7.07,7.07,0,0,0-2.44-5.85q-2.43-1.93-6.93-1.94a13.8,13.8,0,0,0-4.81.76,5.93,5.93,0,0,0-3.11,2.49,8.9,8.9,0,0,0-1.06,4.69A8.78,8.78,0,0,0,501.75,94a5.85,5.85,0,0,0,3.11,2.47,14.64,14.64,0,0,0,4.92.74,13.61,13.61,0,0,0,5-.82,6.47,6.47,0,0,0,3.2-2.54A7.69,7.69,0,0,0,519,89.6h1l.38,4.93h-1.3a8.73,8.73,0,0,1-3.7,5.6A13.06,13.06,0,0,1,508,102.08Z"/>
              </g>
              <g>
                <path d="M270.92,134.66h-5.79V101.6h5.79Zm-27.11,0H238V101.6h5.84ZM268,120.4H239.86v-4.79H268Z"/>
                <path d="M289.91,135.15a18.56,18.56,0,0,1-7.68-1.48,11.3,11.3,0,0,1-5.11-4.34,12.64,12.64,0,0,1-1.82-6.91,12.28,12.28,0,0,1,1.82-6.71,12.09,12.09,0,0,1,5.06-4.46,17,17,0,0,1,7.63-1.61,18.4,18.4,0,0,1,7.33,1.36,10.51,10.51,0,0,1,6.68,10.29,11.67,11.67,0,0,1-.06,1.21,10.6,10.6,0,0,1-.16,1.11H279v-3h20.72l-1.51,1.82c0-.33.05-.65.05-1v-1a6,6,0,0,0-2.14-5.06c-1.42-1.1-3.58-1.65-6.46-1.65q-4.81,0-6.88,2a7.81,7.81,0,0,0-2.05,5.82V123a7.89,7.89,0,0,0,2.05,5.88c1.38,1.35,3.68,2,6.93,2q4.22,0,6.09-1.21a3.81,3.81,0,0,0,1.86-3.38v-.39h5.85v.44a6.78,6.78,0,0,1-1.76,4.61A11.39,11.39,0,0,1,297,134,20.6,20.6,0,0,1,289.91,135.15Z"/>
                <rect x="308.2" y="101.6" width="5.84" height="33.06"/>
                <rect x="319.45" y="101.6" width="5.84" height="33.06"/>
                <path d="M344.45,130.42c3.28,0,5.65-.69,7.09-2a7.82,7.82,0,0,0,2.16-6,8,8,0,0,0-2.16-6c-1.44-1.4-3.81-2.1-7.09-2.1s-5.59.7-7,2.1a7.93,7.93,0,0,0-2.17,6,7.79,7.79,0,0,0,2.17,6C338.86,129.73,341.2,130.42,344.45,130.42Zm0,4.73a18.06,18.06,0,0,1-7.82-1.6,12.51,12.51,0,0,1-5.25-4.49,12.91,12.91,0,0,1,0-13.35,12.45,12.45,0,0,1,5.25-4.46,20,20,0,0,1,15.72,0,12.36,12.36,0,0,1,5.22,4.46,12.85,12.85,0,0,1,0,13.35,12.43,12.43,0,0,1-5.22,4.49A18.14,18.14,0,0,1,344.45,135.15Z"/>
                <polygon points="389.14 134.66 380.54 134.66 370.96 101.6 377.45 101.6 383.35 122.52 384.98 129.53 385.41 129.53 387.36 122.52 394.66 101.6 403.15 101.6 410.95 122.52 413 129.53 413.44 129.53 414.95 122.52 420.36 101.6 426.75 101.6 417.66 134.66 409.05 134.66 401.75 115.42 399.1 106.93 398.61 106.93 396.01 115.42 389.14 134.66"/>
                <path d="M444,130.42c3.28,0,5.65-.69,7.09-2a7.82,7.82,0,0,0,2.16-6,8,8,0,0,0-2.16-6c-1.44-1.4-3.81-2.1-7.09-2.1s-5.59.7-7,2.1a7.93,7.93,0,0,0-2.17,6,7.79,7.79,0,0,0,2.17,6C438.36,129.73,440.7,130.42,444,130.42Zm0,4.73a18.06,18.06,0,0,1-7.82-1.6,12.51,12.51,0,0,1-5.25-4.49,12.91,12.91,0,0,1,0-13.35,12.45,12.45,0,0,1,5.25-4.46,20,20,0,0,1,15.72,0,12.36,12.36,0,0,1,5.22,4.46,12.85,12.85,0,0,1,0,13.35,12.43,12.43,0,0,1-5.22,4.49A18.14,18.14,0,0,1,444,135.15Z"/>
                <path d="M469,120.89h-1.3v-4.14h1.19a9.17,9.17,0,0,1,1.52-3.63,7.82,7.82,0,0,1,3.06-2.54,10.5,10.5,0,0,1,4.68-.94,9.58,9.58,0,0,1,5,1.19A7.07,7.07,0,0,1,486,114a10.41,10.41,0,0,1,.89,4.3v3.2h-5.79v-2.17a5.17,5.17,0,0,0-1.3-3.9c-.86-.82-2.31-1.23-4.33-1.23q-3.45,0-5,1.73A7.32,7.32,0,0,0,469,120.89Zm0,13.77h-5.84V110.14h5.35v7l.49.25Z"/>
                <rect x="490.59" y="101.6" width="5.84" height="33.06"/>
                <path d="M530.57,134.66h-5.35V127l-.49-.64V101.6h5.84Zm-16.88.49a14.91,14.91,0,0,1-7.22-1.6,10.69,10.69,0,0,1-4.47-4.49,15.51,15.51,0,0,1,0-13.35,10.78,10.78,0,0,1,4.39-4.46,14,14,0,0,1,6.92-1.61,12.52,12.52,0,0,1,7.52,2,9.07,9.07,0,0,1,3.57,5.14h1.36v5.47h-1a7,7,0,0,0-2.44-5.84q-2.43-2-6.92-2a13.82,13.82,0,0,0-4.82.76,6,6,0,0,0-3.11,2.49,9,9,0,0,0-1.05,4.69,8.88,8.88,0,0,0,1.05,4.64,5.89,5.89,0,0,0,3.11,2.47,14.66,14.66,0,0,0,4.93.74,13.44,13.44,0,0,0,4.95-.82,6.45,6.45,0,0,0,3.19-2.54,7.67,7.67,0,0,0,1.11-4.24h1l.38,4.93h-1.3a8.74,8.74,0,0,1-3.71,5.6A13.06,13.06,0,0,1,513.69,135.15Z"/>
              </g>
              <g>
                <path d="M290.66,167.72h-5.79V134.66h5.79Zm-27.11,0h-5.84V134.66h5.84Zm24.19-14.26H259.6v-4.78h28.14Z"/>
                <path d="M309.65,168.22a18.72,18.72,0,0,1-7.68-1.48,11.46,11.46,0,0,1-5.12-4.35,12.69,12.69,0,0,1-1.81-6.9,11.9,11.9,0,0,1,6.87-11.18,17.05,17.05,0,0,1,7.63-1.6,18.54,18.54,0,0,1,7.33,1.35,10.5,10.5,0,0,1,6.69,10.29,11.53,11.53,0,0,1-.06,1.21,9.88,9.88,0,0,1-.16,1.11H298.78v-3H319.5L318,155.54a8,8,0,0,0,.06-1v-1a6,6,0,0,0-2.14-5.06c-1.43-1.1-3.58-1.65-6.47-1.65-3.21,0-5.5.68-6.87,2a7.82,7.82,0,0,0-2.05,5.83V156a7.87,7.87,0,0,0,2.05,5.87q2.06,2,6.93,2,4.22,0,6.09-1.2a3.83,3.83,0,0,0,1.86-3.38v-.4h5.85v.44a6.79,6.79,0,0,1-1.76,4.62,11.55,11.55,0,0,1-4.82,3.11A20.64,20.64,0,0,1,309.65,168.22Z"/>
                <rect x="327.94" y="134.66" width="5.84" height="33.06"/>
                <rect x="339.19" y="134.66" width="5.84" height="33.06"/>
                <path d="M364.19,163.48q4.92,0,7.09-2a7.78,7.78,0,0,0,2.16-5.94,8,8,0,0,0-2.16-6q-2.17-2.1-7.09-2.1c-3.25,0-5.59.7-7,2.1a8,8,0,0,0-2.16,6,7.78,7.78,0,0,0,2.16,5.94C358.6,162.8,360.94,163.48,364.19,163.48Zm0,4.74a18,18,0,0,1-7.82-1.61,12.37,12.37,0,0,1-5.25-4.49,12.89,12.89,0,0,1,0-13.34,12.54,12.54,0,0,1,5.25-4.47,20.11,20.11,0,0,1,15.72,0,12.58,12.58,0,0,1,5.22,4.47,12.83,12.83,0,0,1,0,13.34,12.41,12.41,0,0,1-5.22,4.49A18.14,18.14,0,0,1,364.19,168.22Z"/>
                <polygon points="408.88 167.72 400.28 167.72 390.7 134.66 397.19 134.66 403.09 155.59 404.71 162.59 405.15 162.59 407.09 155.59 414.4 134.66 422.89 134.66 430.69 155.59 432.74 162.59 433.17 162.59 434.69 155.59 440.1 134.66 446.48 134.66 437.39 167.72 428.79 167.72 421.49 148.48 418.83 139.99 418.35 139.99 415.75 148.48 408.88 167.72"/>
                <path d="M463.69,163.48q4.92,0,7.09-2a7.78,7.78,0,0,0,2.16-5.94,8,8,0,0,0-2.16-6q-2.17-2.1-7.09-2.1c-3.25,0-5.59.7-7,2.1a8,8,0,0,0-2.16,6,7.78,7.78,0,0,0,2.16,5.94C458.1,162.8,460.44,163.48,463.69,163.48Zm0,4.74a18,18,0,0,1-7.82-1.61,12.37,12.37,0,0,1-5.25-4.49,12.89,12.89,0,0,1,0-13.34,12.54,12.54,0,0,1,5.25-4.47,20.11,20.11,0,0,1,15.72,0,12.58,12.58,0,0,1,5.22,4.47,12.83,12.83,0,0,1,0,13.34,12.41,12.41,0,0,1-5.22,4.49A18.14,18.14,0,0,1,463.69,168.22Z"/>
                <path d="M488.74,154h-1.3v-4.15h1.19a8.93,8.93,0,0,1,1.52-3.62,7.9,7.9,0,0,1,3.05-2.55,10.67,10.67,0,0,1,4.68-.93,9.59,9.59,0,0,1,5,1.18,7.1,7.1,0,0,1,2.84,3.16,10.36,10.36,0,0,1,.89,4.29v3.21h-5.79v-2.17a5.14,5.14,0,0,0-1.3-3.9c-.87-.82-2.31-1.23-4.33-1.23q-3.47,0-5,1.72A7.35,7.35,0,0,0,488.74,154Zm0,13.76H482.9V143.2h5.35v7l.49.24Z"/>
                <rect x="510.33" y="134.66" width="5.84" height="33.06"/>
                <path d="M550.31,167.72H545V160l-.48-.65V134.66h5.84Zm-16.88.5a14.91,14.91,0,0,1-7.22-1.61,10.58,10.58,0,0,1-4.47-4.49,15.49,15.49,0,0,1,0-13.34,10.8,10.8,0,0,1,4.39-4.47,14,14,0,0,1,6.92-1.6,12.47,12.47,0,0,1,7.52,2,9.08,9.08,0,0,1,3.57,5.13h1.36v5.48h-1a7,7,0,0,0-2.44-5.85q-2.43-2-6.92-2a13.81,13.81,0,0,0-4.82.77,5.93,5.93,0,0,0-3.11,2.49,9,9,0,0,0-1,4.69,8.84,8.84,0,0,0,1,4.63,5.76,5.76,0,0,0,3.11,2.47,14.42,14.42,0,0,0,4.93.74,13.66,13.66,0,0,0,4.95-.81,6.49,6.49,0,0,0,3.19-2.54,7.7,7.7,0,0,0,1.11-4.25h1l.37,4.94h-1.29a8.81,8.81,0,0,1-3.71,5.6A13.06,13.06,0,0,1,533.43,168.22Z"/>
              </g>
              <g>
                <path d="M288.85,200.79H283V167.73h5.85ZM313,186.53H284.9v-4.79H313ZM316,200.79h-5.79V167.73H316Z"/>
                <path d="M335,201.28a18.61,18.61,0,0,1-7.69-1.48,11.35,11.35,0,0,1-5.11-4.34,12.64,12.64,0,0,1-1.81-6.91,11.9,11.9,0,0,1,6.87-11.18,17.16,17.16,0,0,1,7.63-1.6,18.36,18.36,0,0,1,7.33,1.36,10.51,10.51,0,0,1,6.68,10.29c0,.42,0,.83-.05,1.21s-.09.74-.16,1.11H324.07v-3h20.72l-1.51,1.82c0-.33.05-.65.05-1v-1a6,6,0,0,0-2.13-5.06c-1.43-1.1-3.58-1.65-6.47-1.65q-4.82,0-6.87,2a7.81,7.81,0,0,0-2.06,5.82v1.28a7.9,7.9,0,0,0,2.06,5.88q2.06,2,6.92,2,4.23,0,6.09-1.21a3.8,3.8,0,0,0,1.87-3.38V192h5.84v.44a6.73,6.73,0,0,1-1.76,4.61,11.42,11.42,0,0,1-4.81,3.11A20.64,20.64,0,0,1,335,201.28Z"/>
                <path d="M359.08,200.79h-5.85V167.73h5.85Z"/>
                <path d="M370.33,200.79h-5.84V167.73h5.84Z"/>
                <path d="M389.48,201.28a18,18,0,0,1-7.81-1.6,12.39,12.39,0,0,1-5.25-4.49,12.85,12.85,0,0,1,0-13.35,12.42,12.42,0,0,1,5.25-4.47,20.08,20.08,0,0,1,15.71,0,12.54,12.54,0,0,1,5.23,4.47,12.91,12.91,0,0,1,0,13.35,12.52,12.52,0,0,1-5.23,4.49A18.11,18.11,0,0,1,389.48,201.28Zm0-4.73c3.29,0,5.65-.69,7.09-2.05a7.83,7.83,0,0,0,2.17-5.95,8,8,0,0,0-2.17-6q-2.16-2.1-7.09-2.1c-3.24,0-5.59.7-7,2.1a8,8,0,0,0-2.16,6,7.82,7.82,0,0,0,2.16,5.95C383.89,195.86,386.24,196.55,389.48,196.55Z"/>
                <path d="M434.17,200.79h-8.6L416,167.73h6.49l5.89,20.92,1.63,7h.43l1.95-7,7.3-20.92h8.5L456,188.65l2.06,7h.43l1.51-7,5.41-20.92h6.39l-9.09,33.06h-8.61l-7.3-19.25-2.65-8.48h-.49l-2.59,8.48Z"/>
                <path d="M489,201.28a18.09,18.09,0,0,1-7.82-1.6,12.42,12.42,0,0,1-5.24-4.49,12.85,12.85,0,0,1,0-13.35,12.45,12.45,0,0,1,5.24-4.47,20.11,20.11,0,0,1,15.72,0,12.45,12.45,0,0,1,5.22,4.47,12.85,12.85,0,0,1,0,13.35,12.43,12.43,0,0,1-5.22,4.49A18.11,18.11,0,0,1,489,201.28Zm0-4.73c3.29,0,5.65-.69,7.09-2.05a7.83,7.83,0,0,0,2.17-5.95,8,8,0,0,0-2.17-6q-2.16-2.1-7.09-2.1c-3.24,0-5.59.7-7,2.1a8,8,0,0,0-2.16,6A7.82,7.82,0,0,0,482,194.5C483.39,195.86,485.74,196.55,489,196.55Z"/>
                <path d="M514,200.79h-5.84V176.27h5.36v6.95l.48.25ZM514,187h-1.29v-4.14h1.19a9,9,0,0,1,1.51-3.63,7.89,7.89,0,0,1,3.06-2.54,10.53,10.53,0,0,1,4.68-.94,9.58,9.58,0,0,1,5,1.19,7,7,0,0,1,2.84,3.15,10.25,10.25,0,0,1,.89,4.3v3.2h-5.79v-2.17a5.21,5.21,0,0,0-1.29-3.9c-.87-.82-2.31-1.23-4.33-1.23q-3.46,0-5,1.73A7.32,7.32,0,0,0,514,187Z"/>
                <path d="M541.47,200.79h-5.85V167.73h5.85Z"/>
                <path d="M558.73,201.28a15,15,0,0,1-7.23-1.6,10.73,10.73,0,0,1-4.46-4.49,15.42,15.42,0,0,1,0-13.35,10.84,10.84,0,0,1,4.38-4.47,14.09,14.09,0,0,1,6.93-1.6,12.54,12.54,0,0,1,7.52,2,9.07,9.07,0,0,1,3.57,5.14h1.35v5.47h-1a7,7,0,0,0-2.43-5.84q-2.43-2-6.93-1.95a13.76,13.76,0,0,0-4.81.76,5.93,5.93,0,0,0-3.11,2.49,8.93,8.93,0,0,0-1.06,4.69,8.78,8.78,0,0,0,1.06,4.64,5.85,5.85,0,0,0,3.11,2.47,14.64,14.64,0,0,0,4.92.74,13.44,13.44,0,0,0,5-.82,6.45,6.45,0,0,0,3.19-2.54,7.67,7.67,0,0,0,1.11-4.24h1l.38,4.93h-1.3a8.74,8.74,0,0,1-3.71,5.6A13,13,0,0,1,558.73,201.28Zm16.88-.49h-5.36v-7.7l-.49-.64V167.73h5.85Z"/>
              </g>
            </g>
          </g>
        </g>
      </g>
      <g id="keyboard">
        <rect id="base-3" data-name="base" class="cls-2" x="280.3" y="205.83" width="260.3" height="260.3"/>
        <g id="ClippedArt">
          <g class="cls-4">
            <g>
              <path class="cls-5" d="M658.63,315.34c-116.38,50.35-268,115.24-385.67,164.8l-1.33.57c-.44.19-.86.38-1.43.57a8,8,0,0,1-9.51-3.74l-.37-.76-.56-1.33-2.26-5.33-9-21.3C217,374.17,176,278.1,144.61,203.82a8.13,8.13,0,0,1,3.89-11.32c26-11.08,373.14-158.15,386.13-163.69l1.33-.56c.44-.19.87-.38,1.44-.58a8,8,0,0,1,9.87,4.5l.57,1.33C571.25,88.17,608,175.67,630.67,230.86c5.71,13.91,21.06,50.61,26.71,64.08l4.5,10.66a7,7,0,0,1-3.25,9.74Zm0,0a6.94,6.94,0,0,0,3.22-9.73L657.32,295l-9.11-21.27C617,201.83,576,106.73,545.6,34.45L545,33.12l-.26-.54a5.75,5.75,0,0,0-7.87-2.1C522,36.82,176.4,183.28,149.44,194.73a5.73,5.73,0,0,0-2.59,8.15c34.85,82.36,77.93,183.74,112.88,266.3L262,474.5l.57,1.34.26.54a5.71,5.71,0,0,0,2,2.1c2.62,1.5,4.63.58,7.16-.57C389.65,427.5,541.33,364.28,658.63,315.34Z"/>
              <g>
                <path class="cls-5" d="M227.6,214.89c-5,2.21-20.32,8.8-25.06,11-4.15,2.46-9.25,1.6-11.43-3-3.39-7.5-6.94-15.13-10.2-22.7-.57-1.36-1.51-3.34-2-4.71a8.25,8.25,0,0,1,4.57-10c3.49-1.43,19.83-8.22,23-9.43,1-.4,3-1.21,4.07-1.6a7.73,7.73,0,0,1,6.2.28,7.61,7.61,0,0,1,3.72,4c2.44,6.17,4.84,12.36,7.32,18.52,1.25,3.08,2.56,6.11,3.77,9.23a7,7,0,0,1-4,8.37Zm-.06-.15a6.76,6.76,0,0,0,3.78-8.14c-1.23-3.06-2.58-6.11-3.86-9.16l-7.79-18.32a6.68,6.68,0,0,0-8.09-3.76c-3.05,1.22-6.1,2.57-9.16,3.85L184.1,187a6.7,6.7,0,0,0-3.76,8.05c2.52,6.15,8.94,21.16,11.59,27.5a6.73,6.73,0,0,0,8.1,3.78c3.06-1.22,6.11-2.56,9.17-3.84l18.34-7.75Z"/>
                <path class="cls-5" d="M274.54,194.34c-5,2.21-20.32,8.8-25.06,11-4.15,2.46-9.25,1.6-11.42-3-3.4-7.5-6.95-15.13-10.21-22.71-.57-1.35-1.5-3.33-2-4.7a8.25,8.25,0,0,1,4.56-10c3.5-1.43,19.83-8.21,23-9.43,1.05-.4,3-1.2,4.07-1.6a7.76,7.76,0,0,1,6.21.28,7.65,7.65,0,0,1,3.71,4c2.44,6.17,4.84,12.36,7.32,18.52,1.26,3.08,2.56,6.1,3.77,9.23a7,7,0,0,1-4,8.37Zm-.06-.15a6.76,6.76,0,0,0,3.78-8.14c-1.22-3.06-2.57-6.11-3.86-9.17l-7.79-18.32a6.66,6.66,0,0,0-8.08-3.76c-3.06,1.23-6.11,2.58-9.17,3.86L231,166.45a6.67,6.67,0,0,0-3.75,8c2.51,6.16,8.93,21.16,11.59,27.51a6.72,6.72,0,0,0,8.09,3.78c3.06-1.22,6.11-2.57,9.17-3.84l18.34-7.75Z"/>
                <path class="cls-5" d="M321.49,173.78c-5.05,2.21-20.33,8.8-25.06,11-4.15,2.46-9.25,1.6-11.43-3-3.4-7.5-6.94-15.13-10.21-22.7-.57-1.36-1.5-3.33-2-4.71a8.24,8.24,0,0,1,4.56-10c3.5-1.43,19.84-8.22,23-9.43l4.06-1.6a7.76,7.76,0,0,1,6.21.28,7.62,7.62,0,0,1,3.71,4c2.44,6.17,4.85,12.36,7.33,18.52,1.25,3.08,2.55,6.11,3.76,9.24a7,7,0,0,1-4,8.36Zm-.07-.15a6.74,6.74,0,0,0,3.78-8.13c-1.22-3.07-2.57-6.11-3.85-9.17L313.56,138a6.68,6.68,0,0,0-8.09-3.76c-3.06,1.22-6.11,2.57-9.16,3.86L278,145.9a6.68,6.68,0,0,0-3.75,8c2.51,6.16,8.93,21.16,11.59,27.51a6.72,6.72,0,0,0,8.09,3.77c3.06-1.21,6.12-2.56,9.17-3.84l18.34-7.75Z"/>
                <path class="cls-5" d="M368.43,153.23c-5.05,2.21-20.33,8.8-25.06,11-4.15,2.46-9.25,1.6-11.43-3-3.4-7.5-6.94-15.13-10.21-22.7-.57-1.36-1.5-3.34-2-4.71a8.24,8.24,0,0,1,4.57-10c3.49-1.43,19.83-8.22,23-9.44,1-.4,3-1.2,4.06-1.59a7.75,7.75,0,0,1,6.21.27,7.64,7.64,0,0,1,3.71,4c2.45,6.17,4.85,12.36,7.33,18.52,1.25,3.08,2.55,6.1,3.76,9.23a7,7,0,0,1-4,8.37Zm-.07-.15a6.76,6.76,0,0,0,3.79-8.14c-1.23-3.06-2.58-6.11-3.86-9.16l-7.79-18.33a6.69,6.69,0,0,0-3.33-3.42,6.58,6.58,0,0,0-4.76-.33c-3.05,1.22-6.11,2.57-9.16,3.85l-18.32,7.79a6.7,6.7,0,0,0-3.76,8c2.51,6.15,8.93,21.16,11.59,27.5a6.72,6.72,0,0,0,8.09,3.78c3.07-1.22,6.12-2.56,9.18-3.84l18.33-7.75Z"/>
                <path class="cls-5" d="M415.37,132.67c-5,2.21-20.33,8.8-25.06,11-4.15,2.46-9.25,1.6-11.43-3-3.39-7.51-6.94-15.13-10.2-22.71-.58-1.35-1.51-3.33-2-4.7a8.25,8.25,0,0,1,4.57-10c3.49-1.43,19.83-8.22,23-9.43l4.07-1.6a7.71,7.71,0,0,1,9.92,4.28c2.44,6.18,4.84,12.37,7.32,18.52,1.25,3.09,2.56,6.11,3.77,9.24a7,7,0,0,1-4,8.36Zm-.06-.15a6.75,6.75,0,0,0,3.78-8.13c-1.23-3.06-2.58-6.11-3.86-9.17L407.44,96.9a6.68,6.68,0,0,0-8.09-3.76c-3.05,1.22-6.11,2.58-9.16,3.86l-18.32,7.79a6.69,6.69,0,0,0-3.76,8c2.51,6.16,8.94,21.16,11.59,27.51a6.73,6.73,0,0,0,8.1,3.78c3.06-1.22,6.11-2.57,9.17-3.84l18.34-7.76Z"/>
                <path class="cls-5" d="M462.31,112.12c-5,2.21-20.32,8.8-25.06,11-4.15,2.46-9.25,1.61-11.43-3-3.39-7.5-6.94-15.13-10.2-22.7-.57-1.36-1.51-3.34-2-4.71a8.25,8.25,0,0,1,4.57-10c3.5-1.43,19.83-8.22,23-9.43,1.05-.41,3-1.21,4.07-1.6a7.76,7.76,0,0,1,6.21.28,7.63,7.63,0,0,1,3.71,4c2.44,6.17,4.84,12.36,7.32,18.52,1.25,3.08,2.56,6.11,3.77,9.23a7,7,0,0,1-4,8.37Zm-.06-.15a6.76,6.76,0,0,0,3.78-8.14c-1.23-3.06-2.58-6.11-3.86-9.16l-7.79-18.32a6.67,6.67,0,0,0-8.09-3.76c-3.05,1.22-6.1,2.57-9.16,3.85l-18.32,7.79a6.68,6.68,0,0,0-3.75,8c2.51,6.15,8.93,21.16,11.59,27.5a6.72,6.72,0,0,0,8.09,3.78c3.06-1.22,6.11-2.56,9.17-3.84L462.25,112Z"/>
                <path class="cls-5" d="M270.38,250.11c-5,2.21-20.32,8.8-25.06,11-4.14,2.46-9.25,1.61-11.42-3-3.4-7.5-7-15.13-10.21-22.7-.57-1.36-1.5-3.34-2-4.71a8.23,8.23,0,0,1,4.56-10c3.5-1.43,19.83-8.22,23-9.43,1-.41,3-1.21,4.06-1.6a7.76,7.76,0,0,1,6.21.28,7.63,7.63,0,0,1,3.71,4c2.44,6.17,4.85,12.36,7.32,18.52,1.26,3.08,2.56,6.11,3.77,9.23a7,7,0,0,1-4,8.37Zm-.06-.15a6.76,6.76,0,0,0,3.78-8.14c-1.22-3.06-2.57-6.11-3.86-9.16l-7.79-18.32a6.66,6.66,0,0,0-8.08-3.76c-3.06,1.22-6.11,2.57-9.17,3.85l-18.32,7.79a6.68,6.68,0,0,0-3.75,8.05c2.51,6.15,8.93,21.16,11.59,27.5a6.72,6.72,0,0,0,8.09,3.78c3.06-1.22,6.11-2.56,9.17-3.84L270.32,250Z"/>
                <path class="cls-5" d="M317.33,229.55c-5.05,2.22-20.33,8.81-25.06,11-4.15,2.46-9.25,1.6-11.43-3-3.4-7.5-6.94-15.13-10.21-22.71-.57-1.35-1.5-3.33-2-4.7a8.25,8.25,0,0,1,4.56-10c3.5-1.43,19.84-8.21,23-9.43l4.06-1.6a7.76,7.76,0,0,1,6.21.28,7.61,7.61,0,0,1,3.71,4c2.45,6.17,4.85,12.36,7.33,18.52,1.25,3.08,2.55,6.1,3.76,9.23a7,7,0,0,1-4,8.36Zm-.07-.14a6.76,6.76,0,0,0,3.78-8.14c-1.22-3.06-2.57-6.11-3.85-9.17l-7.79-18.32a6.68,6.68,0,0,0-8.09-3.76c-3.06,1.23-6.11,2.58-9.16,3.86l-18.33,7.79a6.68,6.68,0,0,0-3.75,8c2.51,6.16,8.93,21.16,11.59,27.51a6.72,6.72,0,0,0,8.09,3.78c3.06-1.22,6.12-2.57,9.17-3.84l18.34-7.75Z"/>
                <path class="cls-5" d="M364.27,209c-5,2.21-20.33,8.8-25.06,11-4.15,2.46-9.25,1.6-11.43-3-3.39-7.5-6.94-15.13-10.21-22.7-.57-1.36-1.5-3.34-2-4.71a8.25,8.25,0,0,1,4.57-10c3.49-1.43,19.83-8.22,23-9.43,1-.4,3-1.21,4.06-1.6a7.75,7.75,0,0,1,6.21.28,7.62,7.62,0,0,1,3.71,4c2.45,6.17,4.85,12.36,7.33,18.52,1.25,3.08,2.55,6.11,3.77,9.24a7,7,0,0,1-4,8.36Zm-.06-.15a6.76,6.76,0,0,0,3.78-8.13c-1.23-3.07-2.58-6.11-3.86-9.17l-7.79-18.32a6.68,6.68,0,0,0-8.09-3.76c-3.05,1.22-6.11,2.57-9.16,3.86l-18.32,7.78a6.7,6.7,0,0,0-3.76,8c2.51,6.15,8.93,21.16,11.59,27.51a6.72,6.72,0,0,0,8.09,3.77c3.07-1.22,6.12-2.56,9.18-3.84l18.34-7.75Z"/>
                <path class="cls-5" d="M411.21,188.45c-5,2.21-20.33,8.8-25.06,11-4.15,2.46-9.25,1.6-11.43-3-3.39-7.5-6.94-15.13-10.2-22.7-.57-1.36-1.51-3.34-2-4.71a8.24,8.24,0,0,1,4.57-10c3.49-1.44,19.83-8.22,23-9.44,1-.4,3-1.2,4.07-1.59a7.69,7.69,0,0,1,9.92,4.28c2.44,6.17,4.84,12.36,7.32,18.52,1.25,3.08,2.56,6.1,3.77,9.23a7,7,0,0,1-4,8.37Zm-.06-.15a6.76,6.76,0,0,0,3.78-8.14c-1.23-3.06-2.58-6.11-3.86-9.16l-7.79-18.33a6.71,6.71,0,0,0-8.09-3.76c-3.05,1.23-6.1,2.58-9.16,3.86l-18.32,7.79a6.69,6.69,0,0,0-3.76,8c2.51,6.16,8.94,21.17,11.59,27.51a6.73,6.73,0,0,0,8.1,3.78c3.06-1.22,6.11-2.56,9.17-3.84l18.34-7.75Z"/>
                <path class="cls-5" d="M458.15,167.89c-5,2.21-20.32,8.8-25.06,11-4.15,2.46-9.25,1.6-11.43-3-3.39-7.51-6.94-15.14-10.2-22.71-.57-1.36-1.5-3.33-2-4.7a8.26,8.26,0,0,1,4.57-10c3.5-1.43,19.83-8.22,23-9.43,1.05-.4,3-1.2,4.07-1.6a7.76,7.76,0,0,1,6.21.28,7.66,7.66,0,0,1,3.71,4c2.44,6.18,4.84,12.37,7.32,18.52,1.26,3.08,2.56,6.11,3.77,9.24a7,7,0,0,1-4,8.36Zm-.06-.15a6.75,6.75,0,0,0,3.78-8.13c-1.23-3.07-2.58-6.11-3.86-9.17l-7.79-18.32a6.66,6.66,0,0,0-8.08-3.76c-3.06,1.22-6.11,2.58-9.17,3.86L414.65,140a6.67,6.67,0,0,0-3.75,8c2.51,6.16,8.93,21.16,11.59,27.51a6.72,6.72,0,0,0,8.09,3.77c3.06-1.21,6.11-2.56,9.17-3.83l18.34-7.76Z"/>
                <path class="cls-5" d="M505.09,147.34c-5,2.21-20.32,8.8-25.06,11-4.14,2.46-9.24,1.61-11.42-3-3.4-7.5-6.95-15.13-10.21-22.7-.57-1.36-1.5-3.34-2-4.71A8.23,8.23,0,0,1,461,118c3.5-1.43,19.83-8.22,23-9.43,1-.41,3-1.21,4.06-1.6a7.76,7.76,0,0,1,6.21.27,7.64,7.64,0,0,1,3.71,4c2.44,6.17,4.85,12.36,7.32,18.52,1.26,3.08,2.56,6.1,3.77,9.23a7,7,0,0,1-4,8.37Zm-.06-.15a6.75,6.75,0,0,0,3.78-8.14c-1.22-3.06-2.57-6.11-3.86-9.16l-7.78-18.33a6.73,6.73,0,0,0-3.33-3.42,6.64,6.64,0,0,0-4.76-.33c-3.06,1.22-6.11,2.57-9.16,3.85l-18.33,7.79a6.68,6.68,0,0,0-3.75,8c2.51,6.15,8.93,21.16,11.59,27.5a6.72,6.72,0,0,0,8.09,3.78c3.06-1.22,6.12-2.56,9.17-3.84L505,147.19Z"/>
                <path class="cls-5" d="M313.87,287.2c-5.05,2.22-20.33,8.81-25.06,11-4.15,2.46-9.25,1.6-11.43-3-3.4-7.51-6.94-15.13-10.21-22.71-.57-1.35-1.5-3.33-2-4.7a8.25,8.25,0,0,1,4.56-10c3.5-1.43,19.84-8.21,23-9.43l4.06-1.6a7.76,7.76,0,0,1,6.21.28,7.62,7.62,0,0,1,3.71,4c2.45,6.18,4.85,12.37,7.33,18.52,1.25,3.09,2.55,6.11,3.76,9.24a7,7,0,0,1-4,8.36Zm-.07-.14a6.76,6.76,0,0,0,3.78-8.14c-1.22-3.06-2.57-6.11-3.85-9.17l-7.79-18.32a6.68,6.68,0,0,0-8.09-3.76c-3.06,1.23-6.11,2.58-9.16,3.86l-18.33,7.79a6.68,6.68,0,0,0-3.75,8c2.51,6.16,8.93,21.16,11.59,27.51a6.72,6.72,0,0,0,8.09,3.78c3.06-1.22,6.12-2.57,9.17-3.84l18.34-7.75Z"/>
                <path class="cls-5" d="M360.81,266.65c-5.05,2.21-20.33,8.8-25.06,11-4.15,2.46-9.25,1.6-11.43-3-3.39-7.5-6.94-15.13-10.21-22.7-.57-1.36-1.5-3.34-2-4.71a8.25,8.25,0,0,1,4.57-10c3.49-1.43,19.83-8.22,23-9.43,1-.4,3-1.21,4.06-1.6a7.75,7.75,0,0,1,6.21.28,7.59,7.59,0,0,1,3.71,4c2.45,6.17,4.85,12.36,7.33,18.52,1.25,3.08,2.55,6.11,3.77,9.23a7,7,0,0,1-4,8.37Zm-.06-.15a6.77,6.77,0,0,0,3.78-8.14c-1.23-3.06-2.58-6.11-3.86-9.16l-7.79-18.32a6.68,6.68,0,0,0-8.09-3.76c-3.05,1.22-6.11,2.57-9.16,3.85l-18.32,7.79a6.7,6.7,0,0,0-3.76,8.05c2.51,6.15,8.93,21.16,11.59,27.5a6.72,6.72,0,0,0,8.09,3.78c3.07-1.22,6.12-2.56,9.18-3.84l18.34-7.75Z"/>
                <path class="cls-5" d="M407.75,246.1c-5,2.21-20.33,8.8-25.06,11-4.15,2.46-9.25,1.6-11.43-3-3.39-7.5-6.94-15.13-10.2-22.71-.58-1.35-1.51-3.33-2-4.7a8.25,8.25,0,0,1,4.57-10c3.49-1.43,19.83-8.21,23-9.43l4.07-1.6a7.7,7.7,0,0,1,9.92,4.29c2.44,6.17,4.84,12.36,7.32,18.52,1.25,3.08,2.56,6.1,3.77,9.23a7,7,0,0,1-4,8.37Zm-.06-.15a6.76,6.76,0,0,0,3.78-8.14c-1.23-3.06-2.58-6.11-3.86-9.17l-7.79-18.32a6.68,6.68,0,0,0-8.09-3.76c-3.05,1.23-6.1,2.58-9.16,3.86l-18.32,7.79a6.69,6.69,0,0,0-3.76,8c2.51,6.16,8.94,21.16,11.59,27.51a6.73,6.73,0,0,0,8.1,3.78c3.06-1.22,6.11-2.57,9.17-3.84L407.69,246Z"/>
                <path class="cls-5" d="M454.69,225.54c-5,2.21-20.32,8.8-25.06,11-4.15,2.46-9.25,1.6-11.43-3-3.39-7.5-6.94-15.13-10.2-22.7-.57-1.36-1.5-3.33-2-4.71a8.26,8.26,0,0,1,4.57-10c3.5-1.43,19.83-8.22,23-9.43,1.05-.4,3-1.2,4.07-1.6a7.76,7.76,0,0,1,6.21.28,7.66,7.66,0,0,1,3.71,4c2.44,6.17,4.84,12.36,7.32,18.52,1.26,3.08,2.56,6.11,3.77,9.24a7,7,0,0,1-4,8.36Zm-.06-.15a6.75,6.75,0,0,0,3.78-8.13c-1.23-3.07-2.58-6.11-3.86-9.17l-7.79-18.32a6.66,6.66,0,0,0-8.08-3.76c-3.06,1.22-6.11,2.57-9.17,3.86l-18.32,7.79a6.67,6.67,0,0,0-3.75,8c2.51,6.16,8.93,21.16,11.59,27.51a6.71,6.71,0,0,0,8.09,3.77c3.06-1.21,6.11-2.56,9.17-3.83l18.34-7.76Z"/>
                <path class="cls-5" d="M501.63,205c-5,2.21-20.32,8.8-25.06,11-4.14,2.46-9.24,1.6-11.42-3-3.4-7.5-6.95-15.13-10.21-22.7-.57-1.36-1.5-3.34-2-4.71a8.23,8.23,0,0,1,4.56-10c3.5-1.43,19.83-8.22,23-9.44,1-.4,3-1.2,4.06-1.59a7.76,7.76,0,0,1,6.21.27,7.64,7.64,0,0,1,3.71,4c2.44,6.17,4.85,12.36,7.32,18.52,1.26,3.08,2.56,6.1,3.77,9.23a7,7,0,0,1-4,8.37Zm-.06-.15a6.75,6.75,0,0,0,3.78-8.14c-1.22-3.06-2.57-6.11-3.86-9.16l-7.78-18.33a6.73,6.73,0,0,0-3.33-3.42,6.59,6.59,0,0,0-4.76-.33c-3.06,1.22-6.11,2.57-9.16,3.85l-18.33,7.79a6.68,6.68,0,0,0-3.75,8.05c2.51,6.15,8.93,21.16,11.59,27.5a6.72,6.72,0,0,0,8.09,3.78c3.06-1.22,6.12-2.56,9.17-3.84l18.34-7.75Z"/>
                <path class="cls-5" d="M548.58,184.43c-5.05,2.21-20.33,8.8-25.06,11-4.15,2.46-9.25,1.6-11.43-3-3.4-7.51-6.94-15.13-10.21-22.71-.57-1.35-1.5-3.33-2-4.7a8.24,8.24,0,0,1,4.57-10c3.49-1.43,19.83-8.22,23-9.43l4.06-1.6a7.76,7.76,0,0,1,6.21.28,7.62,7.62,0,0,1,3.71,4c2.45,6.18,4.85,12.37,7.33,18.52,1.25,3.09,2.55,6.11,3.76,9.24a7,7,0,0,1-4,8.36Zm-.07-.15a6.74,6.74,0,0,0,3.78-8.13c-1.22-3.06-2.57-6.11-3.85-9.17l-7.79-18.32a6.68,6.68,0,0,0-8.09-3.76c-3.06,1.22-6.11,2.58-9.16,3.86l-18.33,7.79a6.68,6.68,0,0,0-3.75,8c2.51,6.16,8.93,21.16,11.59,27.51a6.72,6.72,0,0,0,8.09,3.78c3.06-1.22,6.12-2.57,9.18-3.84l18.33-7.76Z"/>
                <path class="cls-5" d="M387.74,363.08c-5,2.22-20.33,8.81-25.06,11-4.15,2.46-9.25,1.6-11.43-3-3.39-7.5-6.94-15.13-10.21-22.71-.57-1.35-1.5-3.33-2-4.7a8.25,8.25,0,0,1,4.57-10c3.49-1.43,19.83-8.21,23-9.43l4.07-1.6a7.73,7.73,0,0,1,6.2.28,7.61,7.61,0,0,1,3.71,4c2.45,6.17,4.85,12.36,7.33,18.51,1.25,3.09,2.56,6.11,3.77,9.24a7,7,0,0,1-4,8.36Zm-.06-.14a6.77,6.77,0,0,0,3.78-8.14c-1.23-3.06-2.58-6.11-3.86-9.17l-7.79-18.32a6.68,6.68,0,0,0-8.09-3.76c-3.05,1.23-6.11,2.58-9.16,3.86l-18.32,7.79a6.69,6.69,0,0,0-3.76,8c2.51,6.16,8.93,21.16,11.59,27.51a6.73,6.73,0,0,0,8.1,3.78c3.06-1.22,6.11-2.57,9.17-3.84l18.34-7.75Z"/>
                <path class="cls-5" d="M434.68,342.53c-5,2.21-20.32,8.8-25.06,11-4.15,2.46-9.25,1.6-11.43-3-3.39-7.5-6.94-15.13-10.2-22.7-.57-1.36-1.51-3.34-2-4.71a8.25,8.25,0,0,1,4.57-10c3.49-1.43,19.83-8.22,23-9.43,1-.4,3-1.21,4.07-1.6a7.73,7.73,0,0,1,6.2.28,7.64,7.64,0,0,1,3.72,4c2.44,6.17,4.84,12.36,7.32,18.52,1.25,3.08,2.56,6.11,3.77,9.24a7,7,0,0,1-4,8.36Zm-.06-.15a6.75,6.75,0,0,0,3.78-8.13c-1.23-3.07-2.58-6.11-3.86-9.17l-7.79-18.32a6.67,6.67,0,0,0-8.09-3.76c-3.05,1.22-6.1,2.57-9.16,3.86l-18.32,7.78a6.68,6.68,0,0,0-3.75,8.05c2.51,6.15,8.93,21.16,11.58,27.51a6.73,6.73,0,0,0,8.1,3.77c3.06-1.22,6.11-2.56,9.17-3.84l18.34-7.75Z"/>
                <path class="cls-5" d="M481.62,322c-5,2.21-20.32,8.8-25.06,11-4.14,2.46-9.25,1.6-11.42-3-3.4-7.5-6.95-15.13-10.21-22.7-.57-1.36-1.5-3.34-2-4.71a8.23,8.23,0,0,1,4.56-10c3.5-1.44,19.83-8.22,23-9.44,1-.4,3-1.2,4.06-1.59a7.67,7.67,0,0,1,9.92,4.28c2.44,6.17,4.84,12.36,7.32,18.52,1.26,3.08,2.56,6.1,3.77,9.23a7,7,0,0,1-4,8.37Zm-.06-.15a6.76,6.76,0,0,0,3.78-8.14c-1.22-3.06-2.57-6.11-3.86-9.16l-7.79-18.33a6.66,6.66,0,0,0-8.08-3.76c-3.06,1.23-6.11,2.58-9.17,3.86l-18.32,7.79a6.67,6.67,0,0,0-3.75,8c2.51,6.16,8.93,21.16,11.59,27.51a6.72,6.72,0,0,0,8.09,3.78c3.06-1.22,6.11-2.56,9.17-3.84l18.34-7.75Z"/>
                <path class="cls-5" d="M528.57,301.42c-5.05,2.21-20.33,8.8-25.06,11-4.15,2.46-9.25,1.6-11.43-3-3.4-7.51-6.94-15.14-10.21-22.71-.57-1.36-1.5-3.33-2-4.7a8.25,8.25,0,0,1,4.56-10c3.5-1.43,19.84-8.22,23-9.43l4.06-1.6a7.76,7.76,0,0,1,6.21.28,7.62,7.62,0,0,1,3.71,4c2.45,6.17,4.85,12.37,7.33,18.52,1.25,3.08,2.55,6.11,3.76,9.24a7,7,0,0,1-4,8.36Zm-.07-.15a6.74,6.74,0,0,0,3.78-8.13c-1.22-3.07-2.57-6.11-3.85-9.17l-7.79-18.32a6.68,6.68,0,0,0-8.09-3.76c-3.06,1.22-6.11,2.58-9.16,3.86l-18.33,7.79a6.68,6.68,0,0,0-3.75,8c2.51,6.16,8.93,21.16,11.59,27.51a6.72,6.72,0,0,0,8.09,3.77c3.06-1.21,6.12-2.56,9.17-3.83l18.34-7.76Z"/>
                <path class="cls-5" d="M575.51,280.87c-5,2.21-20.33,8.8-25.06,11-4.15,2.46-9.25,1.6-11.43-3-3.39-7.5-6.94-15.13-10.21-22.7-.57-1.36-1.5-3.34-2-4.71a8.24,8.24,0,0,1,4.57-10c3.49-1.43,19.83-8.22,23-9.43,1-.41,3-1.21,4.06-1.6a7.75,7.75,0,0,1,6.21.27,7.64,7.64,0,0,1,3.71,4c2.45,6.17,4.85,12.36,7.33,18.52,1.25,3.08,2.55,6.1,3.77,9.23a7,7,0,0,1-4,8.37Zm-.07-.15a6.76,6.76,0,0,0,3.79-8.14c-1.23-3.06-2.58-6.11-3.86-9.16l-7.79-18.33a6.69,6.69,0,0,0-8.09-3.75c-3,1.22-6.11,2.57-9.16,3.85L532,253a6.7,6.7,0,0,0-3.76,8c2.51,6.15,8.93,21.16,11.59,27.5a6.72,6.72,0,0,0,8.09,3.78c3.07-1.22,6.12-2.56,9.18-3.84l18.33-7.75Z"/>
                <path class="cls-5" d="M622.45,260.31c-5,2.22-20.33,8.81-25.06,11-4.15,2.46-9.25,1.6-11.43-3-3.39-7.51-6.94-15.13-10.2-22.71-.58-1.35-1.51-3.33-2-4.7a8.25,8.25,0,0,1,4.57-10c3.49-1.43,19.83-8.22,23-9.43l4.07-1.6a7.71,7.71,0,0,1,9.92,4.28c2.44,6.18,4.84,12.37,7.32,18.52,1.25,3.09,2.56,6.11,3.77,9.24a7,7,0,0,1-4,8.36Zm-.06-.14a6.77,6.77,0,0,0,3.78-8.14c-1.23-3.06-2.58-6.11-3.86-9.17l-7.79-18.32a6.68,6.68,0,0,0-8.09-3.76c-3,1.22-6.1,2.58-9.16,3.86L579,232.43a6.69,6.69,0,0,0-3.76,8c2.51,6.16,8.94,21.16,11.59,27.51a6.73,6.73,0,0,0,8.1,3.78c3.06-1.22,6.11-2.57,9.17-3.84l18.34-7.75Z"/>
                <path class="cls-5" d="M345,327.4c-5,2.21-20.33,8.8-25.06,11-4.15,2.46-9.25,1.61-11.43-3-3.4-7.5-6.94-15.13-10.21-22.7-.57-1.36-1.5-3.34-2-4.71a8.23,8.23,0,0,1,4.57-10c3.49-1.43,19.83-8.22,23-9.43,1-.41,3-1.21,4.06-1.6a7.76,7.76,0,0,1,6.21.27,7.64,7.64,0,0,1,3.71,4c2.45,6.17,4.85,12.36,7.33,18.52,1.25,3.08,2.55,6.1,3.76,9.23a7,7,0,0,1-4,8.37Zm-.07-.15a6.75,6.75,0,0,0,3.78-8.14c-1.22-3.06-2.57-6.11-3.85-9.16L337,291.62a6.69,6.69,0,0,0-8.09-3.75c-3.06,1.22-6.11,2.57-9.16,3.85l-18.33,7.79a6.69,6.69,0,0,0-3.75,8.05c2.51,6.15,8.93,21.16,11.59,27.5a6.72,6.72,0,0,0,8.09,3.78c3.06-1.22,6.12-2.56,9.17-3.84l18.34-7.75Z"/>
                <path class="cls-5" d="M391.9,306.84c-5,2.22-20.33,8.81-25.06,11-4.15,2.46-9.25,1.6-11.43-3-3.39-7.51-6.94-15.13-10.21-22.71-.57-1.35-1.5-3.33-2-4.7a8.25,8.25,0,0,1,4.57-10c3.49-1.43,19.83-8.21,23-9.43l4.07-1.6a7.73,7.73,0,0,1,6.2.28,7.62,7.62,0,0,1,3.71,4c2.45,6.18,4.85,12.37,7.33,18.52,1.25,3.09,2.55,6.11,3.77,9.24a7,7,0,0,1-4,8.36Zm-.06-.14a6.77,6.77,0,0,0,3.78-8.14c-1.23-3.06-2.58-6.11-3.86-9.17L384,271.07a6.68,6.68,0,0,0-8.09-3.76c-3.05,1.23-6.11,2.58-9.16,3.86L348.4,279a6.69,6.69,0,0,0-3.76,8c2.51,6.16,8.93,21.16,11.59,27.51a6.73,6.73,0,0,0,8.1,3.78c3.06-1.22,6.11-2.57,9.17-3.84l18.34-7.75Z"/>
                <path class="cls-5" d="M438.84,286.29c-5,2.21-20.32,8.8-25.06,11-4.15,2.46-9.25,1.6-11.43-3-3.39-7.5-6.94-15.13-10.2-22.7-.57-1.36-1.51-3.34-2-4.71a8.25,8.25,0,0,1,4.57-10c3.49-1.43,19.83-8.22,23-9.43,1-.4,3-1.21,4.07-1.6a7.73,7.73,0,0,1,6.2.28,7.61,7.61,0,0,1,3.72,4c2.44,6.17,4.84,12.36,7.32,18.52,1.25,3.08,2.56,6.11,3.77,9.23a7,7,0,0,1-4,8.37Zm-.06-.15a6.76,6.76,0,0,0,3.78-8.14c-1.23-3.06-2.58-6.11-3.86-9.16l-7.79-18.32a6.67,6.67,0,0,0-8.09-3.76c-3.05,1.22-6.1,2.57-9.16,3.85l-18.32,7.79a6.7,6.7,0,0,0-3.76,8.05c2.52,6.15,8.94,21.16,11.59,27.5a6.73,6.73,0,0,0,8.1,3.78c3.06-1.22,6.11-2.56,9.17-3.84l18.34-7.75Z"/>
                <path class="cls-5" d="M485.78,265.74c-5,2.21-20.32,8.8-25.06,11-4.15,2.46-9.25,1.6-11.42-3-3.4-7.5-6.95-15.13-10.21-22.71-.57-1.35-1.5-3.33-2-4.7a8.25,8.25,0,0,1,4.56-10c3.5-1.43,19.83-8.21,23-9.43,1.05-.4,3-1.2,4.07-1.6a7.76,7.76,0,0,1,6.21.28,7.65,7.65,0,0,1,3.71,4c2.44,6.17,4.84,12.36,7.32,18.52,1.26,3.08,2.56,6.1,3.77,9.23a7,7,0,0,1-4,8.37Zm-.06-.15a6.76,6.76,0,0,0,3.78-8.14c-1.22-3.06-2.58-6.11-3.86-9.17L477.85,230a6.66,6.66,0,0,0-8.08-3.76c-3.06,1.23-6.11,2.58-9.17,3.86l-18.32,7.79a6.67,6.67,0,0,0-3.75,8c2.51,6.16,8.93,21.16,11.59,27.51a6.72,6.72,0,0,0,8.09,3.78c3.06-1.22,6.11-2.57,9.17-3.84l18.34-7.75Z"/>
                <path class="cls-5" d="M532.73,245.18c-5.05,2.21-20.33,8.8-25.07,11-4.14,2.46-9.24,1.6-11.42-3-3.4-7.5-6.94-15.13-10.21-22.7-.57-1.36-1.5-3.33-2-4.7a8.25,8.25,0,0,1,4.56-10c3.5-1.43,19.84-8.22,23-9.43l4.06-1.6a7.76,7.76,0,0,1,6.21.28,7.62,7.62,0,0,1,3.71,4c2.44,6.17,4.85,12.36,7.33,18.52,1.25,3.08,2.55,6.11,3.76,9.24a7,7,0,0,1-4,8.36Zm-.07-.15a6.74,6.74,0,0,0,3.78-8.13c-1.22-3.07-2.57-6.11-3.86-9.17l-7.78-18.32a6.68,6.68,0,0,0-8.09-3.76c-3.06,1.22-6.11,2.57-9.16,3.86l-18.33,7.79a6.68,6.68,0,0,0-3.75,8c2.51,6.16,8.93,21.16,11.59,27.51a6.72,6.72,0,0,0,8.09,3.77c3.06-1.21,6.12-2.56,9.17-3.83L532.66,245Z"/>
                <path class="cls-5" d="M579.67,224.63c-5,2.21-20.33,8.8-25.06,11-4.15,2.46-9.25,1.6-11.43-3-3.4-7.5-6.94-15.13-10.21-22.7-.57-1.36-1.5-3.34-2-4.71a8.24,8.24,0,0,1,4.57-10c3.49-1.43,19.83-8.22,23-9.44,1-.4,3-1.2,4.06-1.59a7.75,7.75,0,0,1,6.21.27,7.64,7.64,0,0,1,3.71,4c2.45,6.17,4.85,12.36,7.33,18.52,1.25,3.08,2.55,6.1,3.76,9.23a7,7,0,0,1-4,8.37Zm-.07-.15a6.76,6.76,0,0,0,3.79-8.14c-1.23-3.06-2.58-6.11-3.86-9.16l-7.79-18.33a6.69,6.69,0,0,0-3.33-3.42,6.58,6.58,0,0,0-4.76-.33c-3,1.22-6.11,2.57-9.16,3.85l-18.32,7.79a6.7,6.7,0,0,0-3.76,8c2.51,6.15,8.93,21.16,11.59,27.5a6.72,6.72,0,0,0,8.09,3.78c3.07-1.22,6.12-2.56,9.18-3.84l18.33-7.75Z"/>
                <path class="cls-5" d="M584.13,333.18c-28,11.92-68.94,29.83-96.71,42l-9.66,4.23c-1.71.76-3.57,1.7-5.53,1.56a8.05,8.05,0,0,1-7.16-5.1l-1-2.42L457.79,359l-4.17-9.72A8.25,8.25,0,0,1,458,338.58c32.08-13.52,75.14-31.18,107.21-44.29,1.64-.67,3.35-1.53,5.19-1.37a7.19,7.19,0,0,1,6.28,4.59c.63,1.52,2.4,5.72,3.05,7.3l4.07,9.73,4.07,9.73a6.92,6.92,0,0,1-3.73,8.91Zm-.06-.15a6.73,6.73,0,0,0,3.59-8.68l-4.12-9.71-6.18-14.56c-.63-1.36-1.3-3.54-2.4-4.62-2.75-2.91-6.3-2.42-9.57-.72l-9.7,4.12-97.07,41.2a6.67,6.67,0,0,0-3.53,3.57,6.57,6.57,0,0,0,0,5l4.11,9.71,4.11,9.71,2,4.85,1,2.43a6.69,6.69,0,0,0,8.46,3.91c21.45-9,86.82-36.76,109.24-46.23Z"/>
                <path class="cls-5" d="M454.78,388c-7.75,3.27-25.39,11-32.81,14.38l-5.45,2.45c-1.71.68-3.94,2.06-5.89,2a8,8,0,0,1-7.54-5.46l-1.22-2.72c-1.62-3.64-3.29-7.26-4.87-10.91l-4.76-11A8.38,8.38,0,0,1,396,364.85c7.8-3.14,25.55-10.69,33.15-13.58l5.55-2.22c1.74-.6,4-1.9,6-1.76a7.76,7.76,0,0,1,7.18,5.61l1.11,2.77c2.57,6.42,6.28,15.66,9,22.12,2.05,3.73.87,8.54-3.23,10.23Zm-.06-.15a6.92,6.92,0,0,0,3-10l-4.67-11-4.67-11-1.16-2.75a7,7,0,0,0-6.55-5c-1.74-.11-4,1.21-5.59,1.81l-5.5,2.33-33,14a6.87,6.87,0,0,0-3,9.88l4.65,11,4.65,11c.73,1.54,1.48,4,2.56,5.33a6.73,6.73,0,0,0,8,1.78l2.75-1.16,5.5-2.33,33-13.95Z"/>
                <path class="cls-5" d="M395.74,414.54c-5.05,2.21-20.33,8.8-25.06,11-4.15,2.46-9.25,1.6-11.43-3-3.4-7.5-6.94-15.13-10.21-22.7-.57-1.36-1.5-3.33-2-4.71a8.24,8.24,0,0,1,4.56-10c3.5-1.43,19.84-8.22,23-9.43,1-.4,3-1.21,4.06-1.6a7.76,7.76,0,0,1,6.21.28,7.62,7.62,0,0,1,3.71,4c2.45,6.17,4.85,12.36,7.33,18.52,1.25,3.08,2.55,6.11,3.76,9.24a7,7,0,0,1-4,8.36Zm-.07-.15a6.74,6.74,0,0,0,3.78-8.13c-1.22-3.07-2.57-6.11-3.85-9.17l-7.79-18.32a6.68,6.68,0,0,0-8.09-3.76c-3.06,1.22-6.11,2.57-9.16,3.86l-18.33,7.78a6.69,6.69,0,0,0-3.75,8.05c2.51,6.15,8.93,21.16,11.59,27.51a6.72,6.72,0,0,0,8.09,3.77c3.06-1.22,6.12-2.56,9.17-3.84l18.34-7.75Z"/>
                <path class="cls-5" d="M347.68,435.45c-5.05,2.22-20.33,8.81-25.06,11-4.15,2.46-9.25,1.6-11.43-3-3.4-7.51-6.94-15.13-10.21-22.71-.57-1.35-1.5-3.33-2-4.7a8.25,8.25,0,0,1,4.57-10c3.49-1.43,19.83-8.21,23-9.43l4.06-1.6a7.76,7.76,0,0,1,6.21.28,7.62,7.62,0,0,1,3.71,4c2.45,6.18,4.85,12.37,7.33,18.52,1.25,3.09,2.55,6.11,3.76,9.24a7,7,0,0,1-4,8.36Zm-.07-.14a6.77,6.77,0,0,0,3.79-8.14c-1.23-3.06-2.58-6.11-3.86-9.17l-7.79-18.32a6.68,6.68,0,0,0-8.09-3.76c-3.05,1.22-6.11,2.58-9.16,3.86l-18.32,7.79a6.68,6.68,0,0,0-3.76,8c2.51,6.16,8.93,21.16,11.59,27.51a6.72,6.72,0,0,0,8.09,3.78c3.06-1.22,6.12-2.57,9.18-3.84l18.33-7.75Z"/>
                <path class="cls-5" d="M299.92,456.51c-5,2.21-20.32,8.8-25.06,11-4.15,2.46-9.25,1.6-11.43-3-3.39-7.5-6.94-15.13-10.2-22.71-.57-1.35-1.5-3.33-2-4.7a8.26,8.26,0,0,1,4.57-10c3.5-1.43,19.83-8.21,23-9.43,1.05-.4,3-1.2,4.07-1.6a7.76,7.76,0,0,1,6.21.28,7.65,7.65,0,0,1,3.71,4c2.44,6.17,4.84,12.36,7.32,18.52,1.26,3.08,2.56,6.1,3.77,9.23a7,7,0,0,1-4,8.37Zm-.06-.15a6.76,6.76,0,0,0,3.78-8.14c-1.23-3.06-2.58-6.11-3.86-9.17L292,420.73a6.66,6.66,0,0,0-8.08-3.76c-3.06,1.23-6.11,2.58-9.17,3.86l-18.32,7.79a6.67,6.67,0,0,0-3.75,8c2.51,6.16,8.93,21.16,11.59,27.51a6.72,6.72,0,0,0,8.09,3.78c3.06-1.22,6.11-2.57,9.17-3.84l18.34-7.75Z"/>
                <path class="cls-5" d="M340.37,383.17C316.21,393.44,280.93,409,257,419.53c-1.17.48-3,1.38-4.24,1.84A8.1,8.1,0,0,1,242.35,416l-.9-2.09-7.19-16.7-1.8-4.18a25.63,25.63,0,0,1-1.71-4.54,8.25,8.25,0,0,1,4.85-9c16.71-7,50.43-21,67.25-27.76l16.84-6.87c1.42-.56,2.77-1.15,4.25-1.7a7.17,7.17,0,0,1,8.36,3c1.36,2.71,7.51,17.91,8.86,21,.56,1.37,2.07,5,2.63,6.3a7,7,0,0,1-3.42,9.68Zm-.07-.15a6.82,6.82,0,0,0,3.27-9.45c-.55-1.3-2.08-4.92-2.66-6.27l-7.11-16.74a44,44,0,0,0-1.86-4.13,6.69,6.69,0,0,0-7.82-2.74c-14.24,6-72.64,30.84-87.89,37.3a6.74,6.74,0,0,0-3.24,9.34c1.81,4.26,7.84,18.53,9.75,23a43.76,43.76,0,0,0,1.85,4.12A6.55,6.55,0,0,0,248,420.2c3,1.18,5.83-.66,8.56-1.74,10.69-4.53,71.69-30.33,83.74-35.44Z"/>
                <path class="cls-5" d="M298.27,347.38c-18.24,7.76-48,20.88-66.1,28.92-1.19.48-4.35,2-5.56,2.43a7.87,7.87,0,0,1-9.81-3.93c-1.14-2.51-2.2-4.9-3.26-7.38l-6.35-14.72c-.57-1.4-1.87-4.2-2.39-5.65A8.25,8.25,0,0,1,209.37,337c18.27-7.68,48.41-20,66.75-27.41,1.19-.44,4.39-1.83,5.6-2.25a7.24,7.24,0,0,1,6.2.68,7.16,7.16,0,0,1,2.77,3.15l3.05,7.43,6.16,14.8c.51,1.29,1.84,4.29,2.29,5.58a6.94,6.94,0,0,1-3.92,8.41Zm-.06-.15A6.74,6.74,0,0,0,302,339c-.44-1.22-1.8-4.29-2.31-5.54l-6.27-14.76-3.15-7.37a6.69,6.69,0,0,0-6.37-3.82,10.51,10.51,0,0,0-3.77,1.16l-3.69,1.56c-2.91,1.25-61.93,26.29-66.41,28.2a6.69,6.69,0,0,0-3.73,8.11c.44,1.21,1.8,4.29,2.31,5.53l6.25,14.77,3.13,7.37c2,4,6.35,4.72,10.11,2.66,6.43-2.75,62.36-26.36,70.14-29.68Z"/>
                <path class="cls-5" d="M266.73,307.19c-8.1,3.42-26.5,11.5-34.25,15L224,326l-1.43.64a7.79,7.79,0,0,1-11-3.62c-3.41-7.43-7.69-17.36-11-24.95l-.62-1.43a8.21,8.21,0,0,1,4.19-11c8.13-3.28,26.66-11.16,34.59-14.19,3.36-1.31,8.3-3.38,11.65-4.62a7.58,7.58,0,0,1,9.38,5.13l.58,1.45c1.55,3.85,3.06,7.72,4.65,11.56l4.77,11.51c2.18,4,1.41,8.76-3,10.71Zm-.07-.15c4.29-1.92,5-6.58,2.84-10.45-2.44-5.71-7.31-17.23-9.74-22.94-.42-.94-.79-1.94-1.25-2.84a6.71,6.71,0,0,0-7.87-3.14l-45.88,19.46c-4.25,1.9-5,6.51-2.81,10.35,2.43,5.72,7.28,17.24,9.7,22.95.79,1.89,1.47,3.94,3.27,5.1a6.64,6.64,0,0,0,5.83.89L266.66,307Z"/>
              </g>
              <g>
                <path d="M252.77,247.5l-1.29.52L249,241.91l-2,.79-.37-.92.38-.16a2.46,2.46,0,0,0,1-.64,1.71,1.71,0,0,0,.35-1l1.14-.46Z"/>
                <path d="M245,230.21l-1.26.51c-.09-.24-.21-.51-.35-.82s-.29-.65-.46-1l-.48-1-.43-.94c-.13-.28-.23-.52-.31-.7l-.34-.84,1.64-.66.34.84q.12.27.27.72c.11.29.22.62.34,1s.24.72.37,1.08.24.7.36,1S244.89,230,245,230.21Zm1.16,2.59-1.46.6-.72-1.78,1.47-.59Z"/>
                <path d="M304.64,226.74l-6.72,2.71-.35-.85a3.57,3.57,0,0,1-.29-1.34,2.34,2.34,0,0,1,.35-1.18,5,5,0,0,1,1.06-1.18l1.65-1.43a4,4,0,0,0,.62-.67,1.18,1.18,0,0,0,.23-.59,1.4,1.4,0,0,0-.11-.64,1.38,1.38,0,0,0-.49-.63,1.22,1.22,0,0,0-.81-.17,4.12,4.12,0,0,0-1.21.32,4,4,0,0,0-1.21.7,1.49,1.49,0,0,0-.48.83,1.88,1.88,0,0,0,.14,1l.05.13-1.27.52,0-.12a3.13,3.13,0,0,1-.21-1.54,2.89,2.89,0,0,1,.71-1.5,4.9,4.9,0,0,1,1.88-1.22,4.83,4.83,0,0,1,2-.41,2.45,2.45,0,0,1,1.41.46,2.6,2.6,0,0,1,.85,1.14,2.28,2.28,0,0,1-.28,2.33,5.07,5.07,0,0,1-1,1l-1.48,1.2a3.9,3.9,0,0,0-.7.74,1.37,1.37,0,0,0-.24.7,1.82,1.82,0,0,0,.16.81l1.89-.92,3.44-1.39Z"/>
                <path d="M294,211.73a6,6,0,0,1-2.83.47,4.41,4.41,0,0,1-2.36-1,5.55,5.55,0,0,1-1.62-2.3,5.42,5.42,0,0,1-.4-2.87,4.76,4.76,0,0,1,1.16-2.46,6.82,6.82,0,0,1,2.61-1.76,6.69,6.69,0,0,1,2.83-.53,4.26,4.26,0,0,1,2.32.83,4.76,4.76,0,0,1,1.56,2.11,4.53,4.53,0,0,1,.38,1.7,2.49,2.49,0,0,1-.32,1.34,2.21,2.21,0,0,1-2.52.91,1.81,1.81,0,0,1-.94-1l-.7-1.75,0-.15-.52-1.27,1.13-.45,1.23,3a1,1,0,0,0,.39.52.71.71,0,0,0,.6,0,.86.86,0,0,0,.46-.39,1.08,1.08,0,0,0,.07-.72,5.61,5.61,0,0,0-.36-1.2,4.28,4.28,0,0,0-1.19-1.75,2.67,2.67,0,0,0-1.71-.62A6,6,0,0,0,291,203a7.54,7.54,0,0,0-1.73.94,3.44,3.44,0,0,0-1,1.19,2.9,2.9,0,0,0-.29,1.51,6,6,0,0,0,.46,1.88,5.15,5.15,0,0,0,1.31,2,2.79,2.79,0,0,0,1.78.69,5.62,5.62,0,0,0,2.28-.49,7,7,0,0,0,1.06-.51c.3-.19.58-.38.85-.59l.57.79a7.94,7.94,0,0,1-.95.73A7.63,7.63,0,0,1,294,211.73Zm-1.23-2.15a2.45,2.45,0,0,1-1.21.17,2.07,2.07,0,0,1-1.1-.49,3.27,3.27,0,0,1-.84-1.26,2.68,2.68,0,0,1-.12-2.06,2.25,2.25,0,0,1,1.32-1.26,1.87,1.87,0,0,1,1.32-.11,1.78,1.78,0,0,1,.95.69l.25-.1.34,1-.18.07a1.72,1.72,0,0,0-.49-.7,1.12,1.12,0,0,0-.66-.26,1.71,1.71,0,0,0-.78.13,1.47,1.47,0,0,0-.88.78,1.82,1.82,0,0,0,.13,1.3,1.85,1.85,0,0,0,.81,1,1.44,1.44,0,0,0,1.18-.05,1.74,1.74,0,0,0,.65-.44,1.17,1.17,0,0,0,.29-.65,1.57,1.57,0,0,0-.14-.85l.18-.07.41,1-.2.09a2.11,2.11,0,0,1-.05.75,1.61,1.61,0,0,1-.38.7A2.09,2.09,0,0,1,292.81,209.58Z"/>
                <path d="M348.36,207a5.52,5.52,0,0,1-2.2.48,2.76,2.76,0,0,1-1.57-.48,2.92,2.92,0,0,1-1-1.28l-.08-.19,1.37-.56.07.17a2,2,0,0,0,.53.8,1.18,1.18,0,0,0,.86.24,4.67,4.67,0,0,0,1.44-.38,5.81,5.81,0,0,0,1.27-.68,1.38,1.38,0,0,0,.54-.72,1.35,1.35,0,0,0-.08-.85,1.13,1.13,0,0,0-.77-.74,2.17,2.17,0,0,0-1.27.18l-2.24.91-.44-1.08,2.06-.83a2.07,2.07,0,0,0,1-.72,1,1,0,0,0,0-1,1.14,1.14,0,0,0-.44-.56,1.22,1.22,0,0,0-.79-.13,4.81,4.81,0,0,0-1.27.37,4.55,4.55,0,0,0-1.23.69,1.31,1.31,0,0,0-.47.78,1.87,1.87,0,0,0,.15,1l0,.08-1.37.56,0-.11a2.66,2.66,0,0,1,.63-3,5.44,5.44,0,0,1,1.9-1.19,4.64,4.64,0,0,1,2.6-.41,1.91,1.91,0,0,1,1.47,1.23,1.83,1.83,0,0,1,.06,1.3,2,2,0,0,1-.93,1.06l0,.1a2.72,2.72,0,0,1,1.62.09,1.93,1.93,0,0,1,1,1.13,2.1,2.1,0,0,1-.23,2.12A5.11,5.11,0,0,1,348.36,207Z"/>
                <path d="M339.79,192.25l-1.27.51,0-2.06-1.6.65-.47-1.15,2.07-.84-.05-2.29-1.9.77-.47-1.15,2.37-1,0-2.26,1.27-.51,0,2.26,2.18-.88,0-2.26,1.27-.51,0,2.26,1.69-.69.46,1.15-2.16.88.05,2.29,2-.8.47,1.15-2.44,1,0,2.07-1.27.51,0-2.06-2.18.88Zm-.13-5.7,0,2.35L342,188l-.05-2.35Z"/>
                <path d="M397.85,183.28l-7.79,3.15-.37-.9,2.7-7.49,1.09-.44-.14,1.81-.22.09-1.79,4.94,0,.1,6-2.42Zm-.72,2.18-1.28.52-3.25-8,1.28-.52Z"/>
                <path d="M388.35,171.47a5.93,5.93,0,0,1-2.13.47,2.68,2.68,0,0,1-2.6-1.76l0-.07,1.3-.52.08.19a1.41,1.41,0,0,0,.53.71,1.45,1.45,0,0,0,.92.19,5.09,5.09,0,0,0,1.45-.4,5.74,5.74,0,0,0,1.18-.61,1.35,1.35,0,0,0,.51-.62,1,1,0,0,0-.06-.7.93.93,0,0,0-.64-.63,3.07,3.07,0,0,0-1.25.06l-2.09.47a5.39,5.39,0,0,1-1.36.09,2.21,2.21,0,0,1-1.1-.36,2.16,2.16,0,0,1-.74-1,2.39,2.39,0,0,1-.15-.93,2.3,2.3,0,0,1,.3-1,3.33,3.33,0,0,1,.84-1,5.79,5.79,0,0,1,1.52-.84,4.73,4.73,0,0,1,2.08-.42,2.66,2.66,0,0,1,1.51.52,3.08,3.08,0,0,1,.94,1.26l0,.07-1.28.52-.06-.15a1.59,1.59,0,0,0-.55-.74,1.35,1.35,0,0,0-.9-.2,4.71,4.71,0,0,0-1.4.37,5,5,0,0,0-1.13.6,1.35,1.35,0,0,0-.51.62.9.9,0,0,0,0,.68.94.94,0,0,0,1,.66,5,5,0,0,0,.86-.08l2.09-.45a4.8,4.8,0,0,1,1.51-.11,2.24,2.24,0,0,1,1.09.41,2.14,2.14,0,0,1,.68.92,2.29,2.29,0,0,1,.12,1.3,2.69,2.69,0,0,1-.74,1.31A5.24,5.24,0,0,1,388.35,171.47Zm-2.59-7.87-1.2.49-.68-1.69,1.2-.49Zm3.53,8.74-1.2.48-.69-1.71,1.2-.48Z"/>
                <path d="M435.92,159.19l6.19-2.5.47,1.16-5.07,2.05,1,3.47-1.23.41Zm6.39,6.9a6,6,0,0,1-2.09.49,2.73,2.73,0,0,1-1.58-.36,2.47,2.47,0,0,1-1-1.21l-.06-.13,1.32-.54.06.13a1.27,1.27,0,0,0,.55.68,1.57,1.57,0,0,0,.95.14,5.09,5.09,0,0,0,1.37-.39,4.28,4.28,0,0,0,1.13-.63,1.42,1.42,0,0,0,.48-.78,1.72,1.72,0,0,0-.14-1,1.68,1.68,0,0,0-.58-.8,1.32,1.32,0,0,0-.87-.21,4.06,4.06,0,0,0-1.26.33,5.45,5.45,0,0,0-1.34.72,2.37,2.37,0,0,0-.7.8l-.41,0-.28-.65.5-.12a2.26,2.26,0,0,1,.39-.67,3.52,3.52,0,0,1,.76-.72,5.07,5.07,0,0,1,1.14-.62,4.46,4.46,0,0,1,1.72-.36,2.4,2.4,0,0,1,1.37.46,3.06,3.06,0,0,1,1.1,2.85,2.72,2.72,0,0,1-.78,1.43A5.23,5.23,0,0,1,442.31,166.09Z"/>
                <path d="M434.62,148.14l-1.26.5c-.09-.23-.21-.5-.35-.82s-.29-.64-.46-1-.32-.69-.48-1l-.43-.94c-.13-.28-.23-.52-.31-.7l-.34-.84,1.65-.67.33.84q.12.28.27.72c.11.3.22.63.34,1l.37,1.08q.18.54.36,1C434.42,147.63,434.53,147.9,434.62,148.14Zm1.16,2.59-1.46.59-.72-1.77,1.47-.59Z"/>
                <g>
                  <path d="M251,188.1l-1.45.59-3.66-9,1.46-.58Zm2.61-10-6.74,2.72-.53-1.31,6.74-2.72Zm1.45,4.18-6.53,2.64-.53-1.29,6.54-2.65Z"/>
                  <path d="M261,184.08l-1.46.59-2.78-6.87-2.21.89-.42-1,.44-.17a2.93,2.93,0,0,0,1.11-.73,2,2,0,0,0,.39-1.18l1.28-.52Z"/>
                </g>
                <path d="M293.42,276.57a5.65,5.65,0,0,1-2.71.43,4.41,4.41,0,0,1-2.3-1,5.88,5.88,0,0,1-2-4.92,4.42,4.42,0,0,1,1-2.28,6.18,6.18,0,0,1,5-2,4.38,4.38,0,0,1,2.29,1,5.88,5.88,0,0,1,2,4.92,4.49,4.49,0,0,1-1,2.28A5.63,5.63,0,0,1,293.42,276.57Zm-.57-1.4a4.39,4.39,0,0,0,1.63-1.06,2.42,2.42,0,0,0,.63-1.5,5.35,5.35,0,0,0-1.49-3.68,2.31,2.31,0,0,0-1.49-.63,4.3,4.3,0,0,0-1.91.37,4.39,4.39,0,0,0-1.63,1.06,2.39,2.39,0,0,0-.63,1.48,5.61,5.61,0,0,0,1.49,3.69,2.4,2.4,0,0,0,1.49.64A4.44,4.44,0,0,0,292.85,275.17Zm4.24,2-1.83.74-3.31-2,1.63-.66Z"/>
                <path d="M339.27,257.13l-2.15.87-6-8.07,1.61-.65,3.78,5.12,1.18,1.75.11,0-.29-2.11-.49-6.46,2.12-.85,4.25,4.93,1.28,1.71.11,0-.39-2.07-1-6.26,1.6-.65,1.38,9.95-2.14.87-4-4.52-1.6-2.06-.12,0,.29,2.58Z"/>
                <path d="M386.47,236.53l-1.46.59-3.65-9,1.46-.58Zm2.65-10.06-6.79,2.74-.52-1.3,6.78-2.74Zm1.34,3.91L383.88,233l-.52-1.29,6.58-2.66Zm1.78,3.82-6.78,2.74-.53-1.31,6.78-2.74Z"/>
                <path d="M432.42,216.78l-1.45.59-3.65-9,4.69-1.9a5,5,0,0,1,1.9-.4,2.63,2.63,0,0,1,1.51.44,2.75,2.75,0,0,1,1,1.28,2.69,2.69,0,0,1,.2,1.42,2.29,2.29,0,0,1-.57,1.22,3.88,3.88,0,0,1-1.3.95l0,.1a1.77,1.77,0,0,1,1,.1,4.51,4.51,0,0,1,.83.52l2.56,2-1.67.67L435,212.83a2.79,2.79,0,0,0-.68-.41,1.68,1.68,0,0,0-.72-.09,3.79,3.79,0,0,0-1,.28l-1.66.67Zm-3.12-7.72,1.25,3.1,3.22-1.3A2.51,2.51,0,0,0,435,210a1.93,1.93,0,0,0-1-2.39,2.29,2.29,0,0,0-1.51.19Z"/>
                <path d="M482.19,185.82l-8.54,3.45-.53-1.3,8.54-3.46Zm-.42,9.16-1.44.58-3.65-9,1.44-.59Z"/>
                <path d="M320.32,318.4l-1.61.65.38-10.66,2.05-.83,7.68,7.41-1.65.66-5.43-5.25-1-1.07-.11,0v1.49Zm5.46-4.94-6,2.44-.53-1.31,6-2.43Z"/>
                <path d="M371.14,296.31a6.46,6.46,0,0,1-2.4.53,3.16,3.16,0,0,1-1.8-.52,3.08,3.08,0,0,1-1.12-1.46l0-.08,1.46-.58.09.21a1.44,1.44,0,0,0,1.63,1,5.68,5.68,0,0,0,1.64-.45,6.6,6.6,0,0,0,1.32-.68,1.39,1.39,0,0,0,.57-.7,1.1,1.1,0,0,0-.06-.79,1.08,1.08,0,0,0-.72-.71,3.67,3.67,0,0,0-1.4.07l-2.36.53a5.82,5.82,0,0,1-1.53.1,2.47,2.47,0,0,1-1.24-.41,2.28,2.28,0,0,1-.83-1.1,2.56,2.56,0,0,1-.17-1,2.66,2.66,0,0,1,.33-1.12,3.62,3.62,0,0,1,.95-1.08,6.54,6.54,0,0,1,1.72-1,5.39,5.39,0,0,1,2.33-.48,3.12,3.12,0,0,1,1.7.59,3.39,3.39,0,0,1,1.06,1.42l0,.08-1.45.59-.07-.18a1.77,1.77,0,0,0-.61-.83,1.62,1.62,0,0,0-1-.23,5.26,5.26,0,0,0-1.57.43,5.43,5.43,0,0,0-1.27.67,1.45,1.45,0,0,0-.58.69,1.12,1.12,0,0,0,0,.78,1.19,1.19,0,0,0,.41.55,1.11,1.11,0,0,0,.65.18,5.17,5.17,0,0,0,1-.08l2.35-.51a5.49,5.49,0,0,1,1.7-.13,2.3,2.3,0,0,1,2,1.5,2.58,2.58,0,0,1,.13,1.46,3,3,0,0,1-.83,1.47A5.89,5.89,0,0,1,371.14,296.31Z"/>
                <path d="M416.18,276.25l-1.44.58-3.65-9,1.44-.59Zm2.67-1.08-3.64,1.47-.53-1.31,3.64-1.47a4.23,4.23,0,0,0,1.59-1,2.17,2.17,0,0,0,.58-1.43,6,6,0,0,0-1.51-3.74,2.22,2.22,0,0,0-1.4-.62,4.43,4.43,0,0,0-1.85.38l-3.64,1.47-.53-1.3,3.64-1.48a5.51,5.51,0,0,1,2.66-.43,4.08,4.08,0,0,1,2.2.92,5.88,5.88,0,0,1,1.95,4.82,4.08,4.08,0,0,1-.95,2.2A5.39,5.39,0,0,1,418.85,275.17Z"/>
                <path d="M463.68,255.72l-1.45.59-3.65-9,1.45-.58Zm2.61-10-6.74,2.72-.53-1.31,6.75-2.72Zm1.46,4.18-6.54,2.64-.52-1.29,6.53-2.64Z"/>
                <path d="M511.94,235a4.93,4.93,0,0,1-2.55.37,4.3,4.3,0,0,1-2.2-1,5.54,5.54,0,0,1-1.55-2.23,5.36,5.36,0,0,1-.4-2.7,4.37,4.37,0,0,1,1-2.3,5.73,5.73,0,0,1,2.29-1.59A6.32,6.32,0,0,1,511,225a3.77,3.77,0,0,1,2,.55,3.19,3.19,0,0,1,1.29,1.58l0,.11-1.6.65-.05-.11a1.85,1.85,0,0,0-1.28-1.2,3.82,3.82,0,0,0-2.3.34,4.46,4.46,0,0,0-1.66,1.07,2.42,2.42,0,0,0-.63,1.49,4.51,4.51,0,0,0,.4,2,4.58,4.58,0,0,0,1.09,1.7,2.34,2.34,0,0,0,1.46.64,4.24,4.24,0,0,0,1.9-.36,6.73,6.73,0,0,0,1.66-.91,1.91,1.91,0,0,0,.69-1.07,2.4,2.4,0,0,0-.2-1.35l-.12-.3,1.46-.54.09.21-.61,2-.21.08a2.89,2.89,0,0,1-1,2.55A4.87,4.87,0,0,1,511.94,235Zm3.24-5.54-4.79,1.93-.45-1.1,4.79-1.93Zm1.41,3.51-1.32.53-.92-2.29-.2-.14-.79-2,1.44-.58Z"/>
                <path d="M371.85,351.38l-8.19,3.31-.53-1.31,3.35-8.69-.05-.11-5.72,2.31-.52-1.31,7.86-3.17.53,1.31-3.46,8.73.05.11,6.15-2.48Z"/>
                <g>
                  <path d="M252.43,413.46a3.61,3.61,0,0,1-2.15.3,1.69,1.69,0,0,1-1.24-1.1v0l1.13-.46,0,.08a.81.81,0,0,0,.63.57,2.67,2.67,0,0,0,1.24-.27,2.37,2.37,0,0,0,1-.59.58.58,0,0,0,.08-.62.54.54,0,0,0-.41-.37,2.35,2.35,0,0,0-.86.1l-1.5.39a2.58,2.58,0,0,1-1.34.05,1.28,1.28,0,0,1-.82-.82,1.42,1.42,0,0,1-.05-.93,1.88,1.88,0,0,1,.59-.88,4.36,4.36,0,0,1,1.26-.74,4.31,4.31,0,0,1,1.46-.34,1.92,1.92,0,0,1,1.13.27,1.87,1.87,0,0,1,.73.91v0l-1.12.45,0-.06a1.15,1.15,0,0,0-.34-.47.9.9,0,0,0-.57-.14,3.13,3.13,0,0,0-.94.26,2.16,2.16,0,0,0-.94.57.61.61,0,0,0-.07.65.51.51,0,0,0,.39.35,2.13,2.13,0,0,0,.87-.09l1.28-.32a3,3,0,0,1,1.54-.1,1.21,1.21,0,0,1,.84.81,1.3,1.3,0,0,1,0,.95,1.91,1.91,0,0,1-.63.88A4.41,4.41,0,0,1,252.43,413.46Z"/>
                  <path d="M256.77,411.58l-1.14.46-2.83-7,1.13-.46Zm4.35-1.75-1.12.45-1.15-2.83a1.57,1.57,0,0,0-.82-1,1.83,1.83,0,0,0-1.32.14,2,2,0,0,0-.9.61,1.36,1.36,0,0,0-.29.82,2.72,2.72,0,0,0,.22,1l-.21.1-.39-1.13.23-.09a2.58,2.58,0,0,1,0-1,2,2,0,0,1,.45-.92,2.82,2.82,0,0,1,2.32-.88,2,2,0,0,1,1,.5,2.87,2.87,0,0,1,.69,1Z"/>
                  <path d="M260.92,403.14l-1.14.45-.48-1.2,1.13-.46Zm2.35,5.82-1.13.46L260,404.2l1.13-.45Z"/>
                  <path d="M266,402.89l-3.79,1.53-.38-.94,3.79-1.53Zm-.14,5-1.13.45-2-4.93a2.29,2.29,0,0,1-.16-1.24,2,2,0,0,1,.55-1.06,3.55,3.55,0,0,1,1.25-.8l.52-.2.33.83-.69.28a1.68,1.68,0,0,0-.87.64,1,1,0,0,0,.17,1l.09.21Zm3.79-6.5L265.75,403l-.38-.94,3.89-1.58Zm1.72,4.27-1.2.48a2.14,2.14,0,0,1-1.49.13,1.82,1.82,0,0,1-1-1.15l-1.85-4.6,1.13-.46,1.83,4.53c.13.33.29.51.48.56a1.37,1.37,0,0,0,.79-.13l.94-.38Z"/>
                </g>
                <g>
                  <path d="M271.82,456.66,268,458.19l-.38-.94,3.79-1.53Zm-.14,5-1.13.46-2-4.93a2.29,2.29,0,0,1-.16-1.24,2,2,0,0,1,.55-1.06,3.41,3.41,0,0,1,1.25-.8l.52-.21.34.84-.7.28a1.63,1.63,0,0,0-.87.64c-.14.25-.08.58.17,1l.09.21Z"/>
                  <path d="M275.31,460.22l-1.13.45-2.11-5.21,1-.42.66,1.64h.11Zm4.31-1.75-1.14.46-1.14-2.83a1.67,1.67,0,0,0-.79-1,1.7,1.7,0,0,0-1.32.11,1.75,1.75,0,0,0-1.08.94,2,2,0,0,0,.12,1.45l-.2.09-.47-1,.23-.09a2.44,2.44,0,0,1,0-1,2,2,0,0,1,.45-.93,2.53,2.53,0,0,1,1-.7,2.45,2.45,0,0,1,1.32-.19,2,2,0,0,1,1,.49,2.69,2.69,0,0,1,.68,1Z"/>
                </g>
                <g>
                  <path d="M321.17,440.47a3.48,3.48,0,0,1-1.64.27,2.64,2.64,0,0,1-1.37-.56,2.92,2.92,0,0,1-.92-1.26,3,3,0,0,1-.23-1.57,2.6,2.6,0,0,1,.61-1.35,3.36,3.36,0,0,1,1.36-.95,3.67,3.67,0,0,1,1.51-.29,2.48,2.48,0,0,1,1.26.37,2.07,2.07,0,0,1,.82,1l0,.1-1.12.46,0-.07a1.09,1.09,0,0,0-.78-.73,2.13,2.13,0,0,0-1.31.18,1.84,1.84,0,0,0-1.12.94,1.9,1.9,0,0,0,.11,1.44,1.6,1.6,0,0,0,2.38,1,2.14,2.14,0,0,0,1.06-.77,1.14,1.14,0,0,0,.06-1.08l0-.07,1.12-.46.05.12a2.1,2.1,0,0,1,.11,1.28,2.59,2.59,0,0,1-.65,1.16A3.73,3.73,0,0,1,321.17,440.47Z"/>
                  <path d="M326.37,433.29l-3.89,1.57-.38-.95,3.89-1.57Zm1.72,4.26-1.19.49a2.13,2.13,0,0,1-1.49.12,1.77,1.77,0,0,1-1-1.15l-1.86-4.59,1.13-.46,1.83,4.53c.13.32.29.51.49.55a1.31,1.31,0,0,0,.78-.12l.94-.38Z"/>
                  <path d="M329.94,436.81l-1.13.46-2.11-5.22,1-.41.59,1.47.12,0Zm-1.18-2.93-.26.1-.35-.88.23-.09a2.23,2.23,0,0,1,0-.89,1.78,1.78,0,0,1,.38-.78,2.28,2.28,0,0,1,1.9-.71,1.62,1.62,0,0,1,.82.45,2.57,2.57,0,0,1,.54.85l.28.68-1.12.45-.19-.46a1.25,1.25,0,0,0-.59-.73,1.19,1.19,0,0,0-.94.08,1.25,1.25,0,0,0-.82.76A1.74,1.74,0,0,0,328.76,433.88Z"/>
                  <path d="M335.25,434.66l-1.13.46-2.84-7,1.14-.46Z"/>
                </g>
                <g>
                  <path d="M374.75,415.67l-1,.42-.55-1.34h-.08l-.72-1.78a1.23,1.23,0,0,0-.68-.79,1.82,1.82,0,0,0-1.16.18,2,2,0,0,0-1,.68,1,1,0,0,0,0,1v0l-1.12.45,0,0a2,2,0,0,1-.11-1.19,2.2,2.2,0,0,1,.61-1.11,3.53,3.53,0,0,1,1.31-.84,3,3,0,0,1,1.47-.27,1.94,1.94,0,0,1,1.09.44,2.52,2.52,0,0,1,.71,1Zm-3.36,1.48a2.24,2.24,0,0,1-1.43.16,1.29,1.29,0,0,1-.88-.81,1.23,1.23,0,0,1-.08-.77,1.54,1.54,0,0,1,.41-.67,3.67,3.67,0,0,1,.8-.58l2.37-1.26.27.67L370.8,415a1.71,1.71,0,0,0-.58.45.5.5,0,0,0,0,.52.56.56,0,0,0,.42.37,1.36,1.36,0,0,0,.76-.13,3.38,3.38,0,0,0,1-.57,1.56,1.56,0,0,0,.5-.76,1.43,1.43,0,0,0-.09-.94l.16,0,.35.86-.15.06a2,2,0,0,1-.39,1.36A2.92,2.92,0,0,1,371.39,417.15Z"/>
                  <path d="M376.89,414.81l-1.14.46-2.84-7,1.14-.46Z"/>
                  <path d="M379.63,408.74l-3.89,1.57-.38-.95,3.89-1.57Zm1.72,4.26-1.19.49a2.19,2.19,0,0,1-1.49.12,1.8,1.8,0,0,1-1-1.15l-1.86-4.6,1.13-.45,1.83,4.53c.13.32.29.51.49.55a1.31,1.31,0,0,0,.78-.12l.94-.38Z"/>
                </g>
                <g>
                  <path d="M417.81,396.84a3.35,3.35,0,0,1-1.64.26,2.55,2.55,0,0,1-1.38-.55,3.12,3.12,0,0,1-.92-1.27,3,3,0,0,1-.22-1.57,2.6,2.6,0,0,1,.61-1.35,3.34,3.34,0,0,1,1.36-.94,3.6,3.6,0,0,1,1.5-.29,2.55,2.55,0,0,1,1.27.37,2,2,0,0,1,.81,1l.05.1-1.12.45,0-.06a1.14,1.14,0,0,0-.79-.74,2.26,2.26,0,0,0-1.3.18,1.88,1.88,0,0,0-1.12.95,2.37,2.37,0,0,0,1,2.54,1.88,1.88,0,0,0,1.47-.1,2.15,2.15,0,0,0,1.06-.78,1.09,1.09,0,0,0,.05-1.07l0-.08,1.13-.45,0,.11a2,2,0,0,1,.11,1.29,2.39,2.39,0,0,1-.65,1.15A3.57,3.57,0,0,1,417.81,396.84Z"/>
                  <path d="M422.44,394.85l-1.13.45-2.1-5.21,1-.42.66,1.64H421Zm4-1.64-1.12.46-1.15-2.83a1.67,1.67,0,0,0-.77-1,1.49,1.49,0,0,0-1.22.09,1.53,1.53,0,0,0-1,.89,2.29,2.29,0,0,0,.19,1.44l-.19.09-.49-1.05.22-.09a2.71,2.71,0,0,1,0-.94,2,2,0,0,1,.39-.88,2.39,2.39,0,0,1,1-.67,2.14,2.14,0,0,1,1.24-.16,1.87,1.87,0,0,1,1,.51,3,3,0,0,1,.67,1l.06,0Zm4-1.63-1.12.45-1.15-2.83a1.72,1.72,0,0,0-.78-1,1.6,1.6,0,0,0-1.23.09,1.55,1.55,0,0,0-1,.9,2.12,2.12,0,0,0,.18,1.43l-.2.09-.47-1,.23-.09a2.39,2.39,0,0,1,0-1,2,2,0,0,1,.4-.9,2.43,2.43,0,0,1,1-.69,2.24,2.24,0,0,1,1.24-.17,1.88,1.88,0,0,1,1,.5,2.81,2.81,0,0,1,.68,1Z"/>
                  <path d="M433.89,390.34a2.89,2.89,0,0,1-1.54.23,2.34,2.34,0,0,1-1.25-.61,3.58,3.58,0,0,1-.87-1.29,3.51,3.51,0,0,1-.28-1.54,2.33,2.33,0,0,1,.47-1.29,2.65,2.65,0,0,1,1.2-.89,2.45,2.45,0,0,1,1.63-.16,2.23,2.23,0,0,1,1.14.81l.26-.1.47,1.16-.2.08a1.7,1.7,0,0,0-1-1.05,2.09,2.09,0,0,0-1.51.13,2.48,2.48,0,0,0-.87.54,1.22,1.22,0,0,0-.39.77,2.19,2.19,0,0,0,.2,1.08,2.08,2.08,0,0,0,.6.9,1.2,1.2,0,0,0,.81.28,2.72,2.72,0,0,0,1-.22,2.66,2.66,0,0,0,.89-.56,1.4,1.4,0,0,0,.4-.79,1.77,1.77,0,0,0-.15-1l.2-.08.5,1-.25.1a2.06,2.06,0,0,1-.24,1.48A2.55,2.55,0,0,1,433.89,390.34Zm3.23-1.42-1,.42-.66-1.64-.15-.1-2.13-5.25,1.14-.46Z"/>
                </g>
                <g>
                  <path d="M232.48,368.17a3.35,3.35,0,0,1-1.64.26,2.63,2.63,0,0,1-1.37-.55,3,3,0,0,1-.92-1.27,3,3,0,0,1-.23-1.57,2.68,2.68,0,0,1,.61-1.35,3.34,3.34,0,0,1,1.36-.94,3.52,3.52,0,0,1,1.51-.29,2.39,2.39,0,0,1,1.26.37,2,2,0,0,1,.82,1l0,.1-1.12.45,0-.06a1.13,1.13,0,0,0-.78-.74,2.29,2.29,0,0,0-1.31.18,1.88,1.88,0,0,0-1.12,1,2.36,2.36,0,0,0,1,2.54,1.86,1.86,0,0,0,1.46-.1,2.16,2.16,0,0,0,1.06-.78,1.12,1.12,0,0,0,.06-1.07l0-.08,1.12-.45.05.11a2.14,2.14,0,0,1,.11,1.29,2.47,2.47,0,0,1-.65,1.15A3.61,3.61,0,0,1,232.48,368.17Z"/>
                  <path d="M240.91,364.64l-1,.42-.55-1.34h-.08l-.72-1.79a1.23,1.23,0,0,0-.68-.78,1.83,1.83,0,0,0-1.17.17,2.11,2.11,0,0,0-1,.69,1,1,0,0,0,0,1l0,0-1.12.45,0,0a2,2,0,0,1-.12-1.19,2.36,2.36,0,0,1,.61-1.11,3.76,3.76,0,0,1,1.31-.85,3.25,3.25,0,0,1,1.47-.27,2,2,0,0,1,1.1.45,2.47,2.47,0,0,1,.7,1Zm-3.35,1.48a2.24,2.24,0,0,1-1.43.16,1.33,1.33,0,0,1-.89-.81,1.31,1.31,0,0,1-.07-.77,1.41,1.41,0,0,1,.41-.67,3.67,3.67,0,0,1,.8-.58l2.37-1.27.27.68L237,364a1.84,1.84,0,0,0-.58.44.52.52,0,0,0,0,.53.55.55,0,0,0,.41.37,1.39,1.39,0,0,0,.77-.13,3.51,3.51,0,0,0,1-.57,1.61,1.61,0,0,0,.5-.76,1.42,1.42,0,0,0-.09-.94l.16,0,.34.86-.14.06a2,2,0,0,1-.39,1.36A3,3,0,0,1,237.56,366.12Z"/>
                  <path d="M243.77,365.56l-1.13.46-2.83-7,1-.42.66,1.64.15.1Zm1.51-2.56a2.52,2.52,0,0,1-1.6.15,2.12,2.12,0,0,1-1.18-.86l-.24.1-.42-1.05.2-.08a1.87,1.87,0,0,0,.57.8,1.48,1.48,0,0,0,.84.28,2.45,2.45,0,0,0,1-.21,2.76,2.76,0,0,0,.9-.55,1.42,1.42,0,0,0,.39-.77,2.65,2.65,0,0,0-.81-2,1.3,1.3,0,0,0-.81-.28,2.79,2.79,0,0,0-1,.22,2.21,2.21,0,0,0-1.18,1,1.69,1.69,0,0,0,0,1.44l-.2.09-.54-1.13.27-.11a2,2,0,0,1,.25-1.42,2.58,2.58,0,0,1,1.3-1,2.82,2.82,0,0,1,1.51-.21,2.3,2.3,0,0,1,1.24.6,3.49,3.49,0,0,1,.87,1.31,3.54,3.54,0,0,1,.28,1.52,2.38,2.38,0,0,1-.46,1.3A2.88,2.88,0,0,1,245.28,363Z"/>
                  <path d="M251,360.67a3.57,3.57,0,0,1-2.14.3,1.69,1.69,0,0,1-1.24-1.1l0,0,1.14-.46,0,.08a.81.81,0,0,0,.63.57,2.62,2.62,0,0,0,1.23-.27,2.43,2.43,0,0,0,1-.59.6.6,0,0,0,.08-.62.56.56,0,0,0-.41-.37,2.12,2.12,0,0,0-.86.1l-1.5.39a2.58,2.58,0,0,1-1.34.05,1.28,1.28,0,0,1-.82-.83,1.45,1.45,0,0,1-.06-.92,1.93,1.93,0,0,1,.6-.88,4.15,4.15,0,0,1,1.26-.74,4.08,4.08,0,0,1,1.45-.34,1.93,1.93,0,0,1,1.14.27,1.87,1.87,0,0,1,.73.91v0l-1.12.46,0-.07a1.07,1.07,0,0,0-.33-.46.91.91,0,0,0-.58-.14,3.22,3.22,0,0,0-.94.25,2.41,2.41,0,0,0-.94.58.63.63,0,0,0-.06.65.51.51,0,0,0,.39.35,2.14,2.14,0,0,0,.87-.09l1.28-.32a2.91,2.91,0,0,1,1.54-.1,1.26,1.26,0,0,1,.84.8,1.33,1.33,0,0,1,0,1,2.07,2.07,0,0,1-.63.88A4.48,4.48,0,0,1,251,360.67Z"/>
                  <path d="M257.18,358.07l-1.13.46-2.84-7,1.13-.46Z"/>
                  <path d="M260.93,356.67a3.39,3.39,0,0,1-1.65.28,2.66,2.66,0,0,1-1.4-.55,3.14,3.14,0,0,1-1.15-2.83,2.71,2.71,0,0,1,.63-1.36,3.49,3.49,0,0,1,1.38-1,3.65,3.65,0,0,1,1.67-.28,2.86,2.86,0,0,1,1.4.54,3,3,0,0,1,.93,1.28,2.88,2.88,0,0,1,.21,1.56,2.68,2.68,0,0,1-.62,1.37A3.51,3.51,0,0,1,260.93,356.67Zm-.4-1a2,2,0,0,0,1.19-1,1.84,1.84,0,0,0-.09-1.44,1.9,1.9,0,0,0-.93-1.1,2,2,0,0,0-1.56.11,1.66,1.66,0,0,0-1.08,2.44,1.84,1.84,0,0,0,.93,1.09A2,2,0,0,0,260.53,355.67Z"/>
                  <path d="M267.29,354.11a3.36,3.36,0,0,1-1.64.26,2.63,2.63,0,0,1-1.38-.55,3.1,3.1,0,0,1-.92-1.27,3,3,0,0,1-.22-1.57,2.67,2.67,0,0,1,.6-1.35,3.5,3.5,0,0,1,1.37-.95,3.77,3.77,0,0,1,1.5-.29,2.56,2.56,0,0,1,1.27.38,2,2,0,0,1,.81,1l.05.11-1.13.45,0-.06a1.12,1.12,0,0,0-.79-.74,2.1,2.1,0,0,0-1.3.18,1.85,1.85,0,0,0-1.12,1,1.94,1.94,0,0,0,.1,1.44,1.9,1.9,0,0,0,.92,1.09,1.83,1.83,0,0,0,1.47-.09,2.21,2.21,0,0,0,1.06-.78,1.11,1.11,0,0,0,.05-1.08l0-.07,1.13-.45,0,.11a2.06,2.06,0,0,1,.11,1.29,2.52,2.52,0,0,1-.65,1.15A3.7,3.7,0,0,1,267.29,354.11Z"/>
                  <path d="M271.92,352.11l-1.13.46-2.84-7,1.13-.45Zm4.36-1.76-1.33.54-2.4-1.51-2,.81-.41-1,2-.81.73-2.69,1.32-.54-.95,3.3Z"/>
                </g>
                <path d="M411.4,333l-1.89.76,1.83-6,0-.1-5.44-3,1.89-.76,4.38,2.37.11,0,1.43-4.72,1.89-.77-1.85,5.92.05.11,5.45,3-1.89.76-4.39-2.44-.11,0Z"/>
                <path d="M462,312.66a5.49,5.49,0,0,1-2.68.41,4.29,4.29,0,0,1-2.29-.95,5.38,5.38,0,0,1-1.57-2.23,5.46,5.46,0,0,1-.42-2.7,4.34,4.34,0,0,1,1-2.27,5.48,5.48,0,0,1,2.22-1.57,6.2,6.2,0,0,1,2.43-.49,3.78,3.78,0,0,1,2,.6,3.47,3.47,0,0,1,1.3,1.66l.07.18-1.6.65-.07-.18a2.08,2.08,0,0,0-1.31-1.31,3.48,3.48,0,0,0-2.26.29,4.37,4.37,0,0,0-1.62,1.05,2.43,2.43,0,0,0-.61,1.48,5.48,5.48,0,0,0,1.49,3.69,2.37,2.37,0,0,0,1.47.64,4.1,4.1,0,0,0,1.9-.36,3.44,3.44,0,0,0,1.82-1.37,2,2,0,0,0,0-1.84l-.07-.18,1.61-.65.07.18a3.48,3.48,0,0,1,.21,2.09,3.74,3.74,0,0,1-1,1.84A6.22,6.22,0,0,1,462,312.66Z"/>
                <path d="M510.3,290.84l-2.06.84-7.51-7.48,1.73-.7,6.18,6.3.11,0,0-8.82,1.72-.69Z"/>
                <path d="M556.61,270.26l-5.24,2.12-3.65-9,5-2.05a4.23,4.23,0,0,1,1.6-.34,2.27,2.27,0,0,1,1.25.37,2.4,2.4,0,0,1,.82,1.08,2.22,2.22,0,0,1,.08,1.54,2.39,2.39,0,0,1-1.23,1.28l0,.1a2.91,2.91,0,0,1,2,0,2.17,2.17,0,0,1,1.16,1.25,2.75,2.75,0,0,1,.21,1.47,2.38,2.38,0,0,1-.64,1.26A4.08,4.08,0,0,1,556.61,270.26Zm-6.92-6.19,1,2.48,3.41-1.37a2,2,0,0,0,1-.77,1.47,1.47,0,0,0-.75-1.88,1.84,1.84,0,0,0-1.24.15Zm1.49,3.68,1.1,2.74,3.64-1.47a2,2,0,0,0,1.08-.82,1.45,1.45,0,0,0,0-1.22,1.37,1.37,0,0,0-.82-.87,2.07,2.07,0,0,0-1.33.17Z"/>
                <path d="M527.59,170.3l-1.34.55-6.45-4.38,1.78-.72L525,168.1l1.22.84.11,0,.27-1.45.82-4.06,1.8-.73Zm1.27,3-1.44.58-1.61-4,1.44-.58Z"/>
                <g>
                  <path d="M297.66,169.52l-1.46.59-3.65-9,1.46-.59Zm2.61-10-6.74,2.72-.53-1.31,6.74-2.72Zm1.45,4.18-6.54,2.64-.52-1.29,6.54-2.65Z"/>
                  <path d="M311.82,163.8l-7.57,3-.39-.95a4,4,0,0,1-.32-1.52,2.52,2.52,0,0,1,.39-1.32,5.38,5.38,0,0,1,1.19-1.32l1.85-1.62a4.17,4.17,0,0,0,.7-.75,1.31,1.31,0,0,0,.26-.66,1.49,1.49,0,0,0-.13-.72,1.37,1.37,0,0,0-.54-.71,1.45,1.45,0,0,0-.91-.2,4.79,4.79,0,0,0-1.37.37,4.35,4.35,0,0,0-1.36.79,1.66,1.66,0,0,0-.54.93,2.13,2.13,0,0,0,.16,1.11l.06.15-1.43.58-.05-.14a3.37,3.37,0,0,1-.23-1.72,3.19,3.19,0,0,1,.8-1.69,5.4,5.4,0,0,1,2.11-1.37,5.32,5.32,0,0,1,2.23-.47,2.74,2.74,0,0,1,1.58.52,3,3,0,0,1,1,1.28,2.65,2.65,0,0,1,.2,1.38A2.78,2.78,0,0,1,309,160a5.85,5.85,0,0,1-1.13,1.16l-1.66,1.35a4.57,4.57,0,0,0-.79.84,1.5,1.5,0,0,0-.27.78,2,2,0,0,0,.18.91l2.13-1,3.87-1.56Z"/>
                </g>
              </g>
            </g>
          </g>
        </g>
      </g>
      <g id="tabs">
        <rect id="base-4" data-name="base" class="cls-2" x="0.5" y="35.93" width="271.91" height="389.71"/>
        <g id="grid">
          <path d="M15.61,166.33H0v-66H15.61ZM1,165.33H14.61v-64H1Z"/>
          <path d="M15.61,101.38H0V35.43H46.31V98.82H15.61ZM1,100.38H14.61V97.82h30.7V36.43H1Z"/>
          <path d="M91.63,98.82H45.31V35.43H91.63Zm-45.32-1H90.63V36.43H46.31Z"/>
          <path d="M272.91,101.38H249V98.82H90.63V35.43H272.91Zm-22.91-1h21.91V36.43H91.63V97.82H250Z"/>
          <path class="cls-6" d="M249.5,100.88V98.32H15.11v67.51H.5V360.68H181.77v64.95h90.64V100.88Zm14,245.8H29.12V112.3H263.5Z"/>
          <path d="M182.27,426.13H0V360.18H182.27ZM1,425.13H181.27V361.18H1Z"/>
          <rect x="181.77" y="360.18" width="90.64" height="1"/>
          <rect x="263.5" y="295.23" width="8.91" height="1"/>
          <rect x="0.5" y="295.23" width="28.62" height="1"/>
          <rect x="263.5" y="230.28" width="8.91" height="1"/>
          <rect x="0.5" y="230.28" width="28.62" height="1"/>
          <rect x="263.5" y="165.33" width="8.91" height="1"/>
          <rect x="15.11" y="165.33" width="14.01" height="1"/>
          <rect x="15.11" y="100.38" width="234.39" height="1"/>
          <rect x="226.59" y="98.32" width="1" height="13.98"/>
          <rect x="226.59" y="346.68" width="1" height="78.95"/>
          <rect x="181.27" y="98.32" width="1" height="13.98"/>
          <rect x="181.27" y="346.68" width="1" height="14"/>
          <rect x="135.95" y="98.32" width="1" height="13.98"/>
          <rect x="135.95" y="346.68" width="1" height="14"/>
          <rect x="90.63" y="98.32" width="1" height="13.98"/>
          <rect x="90.63" y="346.68" width="1" height="14"/>
          <rect x="45.31" y="98.32" width="1" height="13.98"/>
          <rect x="45.31" y="346.68" width="1" height="14"/>
        </g>
        <g id="code">
          <path d="M76,218.19l38-19.59v19.45L87.55,229.86v1.39L114,243.05V262.5L76,242.92Z"/>
          <path d="M137.31,279.87H123.72l30.57-98.64h13.58Z"/>
          <path d="M214.91,242.92,177,262.5V243.05l26.4-11.8v-1.39L177,218.05V198.6l37.95,19.59Z"/>
        </g>
        <g id="port">
          <path d="M113,84.12h-7.2V52H113Zm9.6-8.88h-14.3V68.76h13.53a7.32,7.32,0,0,0,4.44-1.08c.95-.72,1.42-2.09,1.42-4.1s-.47-3.3-1.42-4a7.17,7.17,0,0,0-4.44-1.11H108.32V52h14.3a14.34,14.34,0,0,1,6.48,1.37,9.92,9.92,0,0,1,4.25,4,12.26,12.26,0,0,1,1.51,6.29,12.39,12.39,0,0,1-1.51,6.31,9.91,9.91,0,0,1-4.25,4A14.21,14.21,0,0,1,122.62,75.24Z"/>
          <path d="M154,84.6a19.63,19.63,0,0,1-9.2-2,14.26,14.26,0,0,1-6-5.76A17.63,17.63,0,0,1,136.69,68a17.63,17.63,0,0,1,2.08-8.76,14.26,14.26,0,0,1,6-5.76,19.63,19.63,0,0,1,9.2-2,19.89,19.89,0,0,1,9.35,2,14.38,14.38,0,0,1,6,5.76A17.43,17.43,0,0,1,171.44,68a17.43,17.43,0,0,1-2.12,8.76,14.38,14.38,0,0,1-6,5.76A19.89,19.89,0,0,1,154,84.6Zm0-6.91a14.24,14.24,0,0,0,5.68-.94,5.94,5.94,0,0,0,3.12-3,13.54,13.54,0,0,0,1-5.67,13.52,13.52,0,0,0-1-5.69,5.94,5.94,0,0,0-3.12-3,14.42,14.42,0,0,0-5.68-.94,14.13,14.13,0,0,0-5.62.94,5.88,5.88,0,0,0-3.07,3,13.89,13.89,0,0,0-1,5.69,13.92,13.92,0,0,0,1,5.67,5.88,5.88,0,0,0,3.07,3A14,14,0,0,0,154,77.69Z"/>
          <path d="M181.76,84.12h-7.2V52h17.75a18.05,18.05,0,0,1,6.77,1.13,8.92,8.92,0,0,1,4.23,3.29,9.21,9.21,0,0,1,1.44,5.23,9.42,9.42,0,0,1-1,4.51,7.46,7.46,0,0,1-3,3,12.8,12.8,0,0,1-5,1.42v.38a6.54,6.54,0,0,1,3.21,1.73,14.07,14.07,0,0,1,2,2.83l4.66,8.64h-8.36l-4.41-8.35a8.26,8.26,0,0,0-1.4-2,4,4,0,0,0-1.84-1,11.54,11.54,0,0,0-3-.31h-4.75Zm0-25.68V67h10.51a6.35,6.35,0,0,0,3.74-.88c.8-.6,1.2-1.74,1.2-3.44a4,4,0,0,0-1.2-3.33,6,6,0,0,0-3.74-.94Z"/>
          <path d="M237.63,58.44H206.52V52h31.11ZM225.68,84.12h-7.2V52h7.2Z"/>
          <path d="M257.64,73h-17.9V66.84h17.9Z"/>
        </g>
        <g id="folio">
          <path d="M23.26,400.6H5.35v-6.2H23.26Z"/>
          <path d="M41.21,411.68H34V379.52h7.2Zm20-25.68H36v-6.48h25.2Zm-.72,13.68H36v-6.43H60.51Z"/>
          <path d="M80.86,412.16a19.66,19.66,0,0,1-9.2-2,14.38,14.38,0,0,1-6-5.76,19.49,19.49,0,0,1,0-17.52,14.5,14.5,0,0,1,6-5.76,19.66,19.66,0,0,1,9.2-2,20,20,0,0,1,9.36,2,14.62,14.62,0,0,1,6,5.76,19.24,19.24,0,0,1,0,17.52,14.49,14.49,0,0,1-6,5.76A20,20,0,0,1,80.86,412.16Zm0-6.91a14.44,14.44,0,0,0,5.68-.93,6,6,0,0,0,3.12-3.05,16.76,16.76,0,0,0,0-11.35,6,6,0,0,0-3.12-3,14.44,14.44,0,0,0-5.68-.93,14.15,14.15,0,0,0-5.62.93,5.9,5.9,0,0,0-3.07,3,17.25,17.25,0,0,0,0,11.35,5.9,5.9,0,0,0,3.07,3.05A14.15,14.15,0,0,0,80.86,405.25Z"/>
          <path d="M108.65,411.68h-7.2V379.52h7.2Zm19.15,0H103.46V405.2H127.8Z"/>
          <path d="M137.88,411.68h-7.2V379.52h7.2Z"/>
          <path d="M158.23,412.16a19.62,19.62,0,0,1-9.19-2,14.26,14.26,0,0,1-6-5.76,19.4,19.4,0,0,1,0-17.52,14.38,14.38,0,0,1,6-5.76,19.62,19.62,0,0,1,9.19-2,19.9,19.9,0,0,1,9.36,2,14.62,14.62,0,0,1,6,5.76,19.24,19.24,0,0,1,0,17.52,14.49,14.49,0,0,1-6,5.76A19.9,19.9,0,0,1,158.23,412.16Zm0-6.91a14.46,14.46,0,0,0,5.69-.93,6,6,0,0,0,3.12-3.05,16.92,16.92,0,0,0,0-11.35,6,6,0,0,0-3.12-3,14.46,14.46,0,0,0-5.69-.93,14.1,14.1,0,0,0-5.61.93,5.92,5.92,0,0,0-3.08,3,17.25,17.25,0,0,0,0,11.35,5.92,5.92,0,0,0,3.08,3.05A14.1,14.1,0,0,0,158.23,405.25Z"/>
        </g>
        <g id="back">
          <polygon points="249.5 98.32 249.5 112.3 29.12 112.3 29.12 332.71 15.11 332.71 15.11 98.32 249.5 98.32"/>
        </g>
        <g id="header1">
          <path d="M264.59,112.3c.25,6,.42,12.27.36,18.37H263.5L29.12,130h-.75v-.75l.05-16.92v-.7c.05-.06,234.8.74,235.07.7Zm-2.1,0c.07-.6-236.28,1.94-232.67,0l.05,16.92-.75-.75,234.38-.7-1.45,1.45c0-5.63.17-11.2.44-16.92Z"/>
        </g>
        <g id="window1">
          <path d="M263.5,129.22c.32,54.2,1,163.26,1.12,217.46v1.11H263.5c-29.23.06-88,.25-117.19.24l-117.19.14h-1.5v-1.5c-.1-2.08.38-216.62.31-218.65,59,.25,176.55.75,235.56,1.19Zm0,0c-58.42.45-176,.95-234.38,1.18l1.19-1.18.31,217.46-1.5-1.5,117.19.14c29.19,0,88,.16,117.19.24l-1.11,1.12c.14-54.19.78-163.28,1.11-217.46Z"/>
        </g>
        <g id="year">
          <path d="M184.27,339.17H182V325.1h3.08l4.06,8.15,1.28,2.92h.16l1.24-2.92,4-8.15h3.09v14.07h-2.27v-8.63l.09-2h-.17l-.86,2-3.89,7.79H189.1l-3.88-7.79-.86-2h-.17l.08,2Z"/>
          <path d="M203.3,339.17H201V325.1h3.09l4,8.15,1.28,2.92h.17l1.24-2.92,4-8.15H218v14.07h-2.27v-8.63l.08-2h-.16l-.87,2-3.88,7.79h-2.73l-3.89-7.79-.86-2h-.16l.08,2Z"/>
          <path d="M222,339.17H219l5.67-7V332L219,325.1H222l4.58,5.54h.16l4.48-5.54h2.94L228.44,332v.17l5.67,7h-2.94l-4.56-5.65h-.17Z"/>
          <path d="M237.05,339.17h-2.94l5.67-7V332l-5.67-6.91h2.94l4.57,5.54h.17l4.48-5.54h2.94L243.54,332v.17l5.67,7h-2.94l-4.56-5.65h-.17Z"/>
          <path d="M252.52,339.17h-2.27V325.1h2.27Z"/>
          <path d="M256.89,339.17h-2.27V325.1h2.27Z"/>
        </g>
        <g id="close">
          <path d="M246,126h-2.71l4.49-5.17v-.13l-4.49-5.14H246l3.46,3.95h.13l3.42-3.95h2.73l-4.49,5.1v.13l4.49,5.21H253l-3.46-4h-.15Z"/>
        </g>
      </g>
    </g>
  </g>
</svg>
