<svg xmlns="http://www.w3.org/2000/svg" viewBox="0 0 254.09 260.67">
  <defs>
    <style>
      .cls-1 {
        
      }
    </style>
  </defs>
  <g id="Layer_2" data-name="Layer 2">
    <g id="spinner">
      <g id="letters">
        <path d="M152.32,32.75,128.1,29.58l.3-2.23a14.14,14.14,0,0,1,1.42-4.9,8.09,8.09,0,0,1,3.08-3.12,17.72,17.72,0,0,1,5.23-1.89l7.16-1.52A17.94,17.94,0,0,0,149,14.71,5.07,5.07,0,0,0,151.11,13a6.43,6.43,0,0,0,.9-2.67,5.61,5.61,0,0,0-.5-3.45,5.56,5.56,0,0,0-2.57-2.33,15.33,15.33,0,0,0-4.73-1.27,14.79,14.79,0,0,0-5.44.12,6.15,6.15,0,0,0-3.35,2,7.29,7.29,0,0,0-1.49,3.75l-.07.55-3.24-.42,0-.41a10.44,10.44,0,0,1,2-4.92,9.53,9.53,0,0,1,4.6-3.25A16.13,16.13,0,0,1,144.7.21a15.89,15.89,0,0,1,6.55,2.1,8.78,8.78,0,0,1,3.4,3.74,8.6,8.6,0,0,1,.65,4.68,8.34,8.34,0,0,1-1.5,4,8.47,8.47,0,0,1-3.16,2.55,20.69,20.69,0,0,1-4.84,1.57l-6.53,1.28a14.37,14.37,0,0,0-4.15,1.41,5.77,5.77,0,0,0-2.29,2.28,10,10,0,0,0-1,3.55l6.87.62,14.05,1.83Z"/>
        <path d="M166.64,39a14.71,14.71,0,0,1-6.2-4.78,12.76,12.76,0,0,1-2.38-7,19.21,19.21,0,0,1,1.78-8.48,19.16,19.16,0,0,1,5-7.11,12.69,12.69,0,0,1,6.73-3,16,16,0,0,1,13.9,6,12.76,12.76,0,0,1,2.36,7,19,19,0,0,1-1.79,8.5,19.1,19.1,0,0,1-5,7.08,12.73,12.73,0,0,1-6.72,3.05A14.47,14.47,0,0,1,166.64,39Zm1.24-2.87a11.9,11.9,0,0,0,6,1.11,8.67,8.67,0,0,0,5-2.41,18.25,18.25,0,0,0,4-6.08,18,18,0,0,0,1.73-7,8.52,8.52,0,0,0-1.65-5.3,13.65,13.65,0,0,0-11-4.77A8.55,8.55,0,0,0,167,14a18.09,18.09,0,0,0-4,6.07,18.08,18.08,0,0,0-1.73,7.05,8.57,8.57,0,0,0,1.65,5.31A12.06,12.06,0,0,0,167.88,36.11Z"/>
        <path d="M200,60.91,181.17,45.39l1.43-1.74a14,14,0,0,1,3.81-3.39,7.85,7.85,0,0,1,4.26-1,17.68,17.68,0,0,1,5.44,1.17l6.88,2.5a17.53,17.53,0,0,0,3.8,1,5.1,5.1,0,0,0,2.69-.38,6.33,6.33,0,0,0,2.18-1.78,5.68,5.68,0,0,0,1.41-3.19,5.51,5.51,0,0,0-.95-3.34,15.21,15.21,0,0,0-3.34-3.58,14.46,14.46,0,0,0-4.68-2.78,6.17,6.17,0,0,0-3.91-.07,7.35,7.35,0,0,0-3.25,2.4l-.35.42-2.52-2.07.26-.32a10.42,10.42,0,0,1,4.28-3.13,9.53,9.53,0,0,1,5.62-.32,16.07,16.07,0,0,1,6.58,3.55,15.93,15.93,0,0,1,4.44,5.25,8.77,8.77,0,0,1,.9,5,8.59,8.59,0,0,1-1.93,4.31,8.4,8.4,0,0,1-3.36,2.56,8.57,8.57,0,0,1-4,.49,20.26,20.26,0,0,1-4.94-1.24l-6.21-2.37a14.52,14.52,0,0,0-4.27-1,5.74,5.74,0,0,0-3.15.72,9.91,9.91,0,0,0-2.76,2.46L191,49.6l10.94,9Z"/>
        <path d="M215.51,82.16,201.28,62.31,203.11,61a14.12,14.12,0,0,1,4.55-2.3,8,8,0,0,1,4.38.12,17.78,17.78,0,0,1,5,2.53l6,4.19a17.53,17.53,0,0,0,3.42,1.9,5.22,5.22,0,0,0,2.7.33,6.43,6.43,0,0,0,2.57-1.16,5.71,5.71,0,0,0,2.18-2.73,5.51,5.51,0,0,0-.06-3.47,15.56,15.56,0,0,0-2.3-4.32,14.85,14.85,0,0,0-3.81-3.89,6.09,6.09,0,0,0-3.76-1.06,7.38,7.38,0,0,0-3.76,1.47l-.44.32-1.91-2.65.34-.24a10.37,10.37,0,0,1,4.93-1.93,9.52,9.52,0,0,1,5.52,1.14,16.25,16.25,0,0,1,5.45,5.12A16,16,0,0,1,237,60.58a8.86,8.86,0,0,1-.4,5,8.56,8.56,0,0,1-3,3.66,8.23,8.23,0,0,1-3.91,1.61,8.55,8.55,0,0,1-4-.56,21.08,21.08,0,0,1-4.45-2.47L215.83,64A14.35,14.35,0,0,0,212,61.91a5.73,5.73,0,0,0-3.22-.12,10.16,10.16,0,0,0-3.31,1.66l4.24,5.45,8.26,11.52Z"/>
        <path d="M220.88,94.81,220,91.66l29.65-8.39.89,3.14Zm12.57,7.77L230,90.32l2.88-.82,3.39,12c.75,2.62,1.87,4.46,3.38,5.5s3.52,1.2,6.06.48,4.09-1.9,4.85-3.57.75-3.84,0-6.46l-3.4-12,2.88-.81L253.5,96.9a13.69,13.69,0,0,1,.43,6,9.26,9.26,0,0,1-2.31,4.83,11.72,11.72,0,0,1-10.84,3.08,9.45,9.45,0,0,1-4.53-2.91A13.26,13.26,0,0,1,233.45,102.58Z"/>
        <path d="M226.5,129a13.32,13.32,0,0,1,1.41-6.49,10.9,10.9,0,0,1,4.12-4.39,12.91,12.91,0,0,1,12.23-.2,11,11,0,0,1,4.25,4.26,13.2,13.2,0,0,1,1.63,6.44,13.38,13.38,0,0,1-1.41,6.55,11,11,0,0,1-4.12,4.37,12.08,12.08,0,0,1-6.09,1.64,11.94,11.94,0,0,1-6.14-1.44,10.92,10.92,0,0,1-4.26-4.24A13.34,13.34,0,0,1,226.5,129Zm2.94-.05q.08,4.74,2.48,6.91a10.71,10.71,0,0,0,13-.21c1.55-1.5,2.31-3.83,2.25-7s-.87-5.37-2.48-6.83a10.59,10.59,0,0,0-13,.21Q229.36,124.3,229.44,128.94Z"/>
        <path d="M225.68,147.2l.72-3.19,22.17,5-.65,2.87-6.23-1.4-.3.27Zm12,2.7.2-.9,4.09.92-.19.81a8.81,8.81,0,0,1,3,2,7.11,7.11,0,0,1,1.78,3.11,8.43,8.43,0,0,1,0,4.15,7.44,7.44,0,0,1-2.06,3.94,6.77,6.77,0,0,1-3.46,1.75,10.16,10.16,0,0,1-4-.1l-2.2-.5.71-3.19,1.71.39a6.29,6.29,0,0,0,4.5-.31c1.12-.63,1.89-1.92,2.33-3.86.5-2.25.2-4-.92-5.37A9.53,9.53,0,0,0,237.71,149.9Z"/>
        <path d="M215.64,177.24l2-4.52a8.4,8.4,0,0,1,3.62-4.32c1.51-.8,3.5-.67,5.95.39l19.21,8.31-1.32,3-19.38-8.38c-1.46-.64-2.6-.7-3.43-.18a6.58,6.58,0,0,0-2.22,3l-1.64,3.81Zm18.28,7.9,6.5-15,2.58,1.12-6.5,15Z"/>
        <path d="M211.75,183.36l1.76-2.75,18.28,11.72a9.9,9.9,0,0,1,3.62,3.72,7.23,7.23,0,0,1,.72,4.5,12.72,12.72,0,0,1-2,5.06l-1.34,2.09-2.17-1.39,1.59-2.48a7.56,7.56,0,0,0,1.52-4.76q-.21-2.06-3.16-3.67L230,195Zm11.82,18.46,8.67-13.52,2.36,1.52-8.66,13.51Z"/>
        <path d="M197.84,200.19a13.27,13.27,0,0,1,5.62-3.54,10.92,10.92,0,0,1,6-.13,11.83,11.83,0,0,1,5.43,3.2,12,12,0,0,1,3.28,5.39,11,11,0,0,1-.06,6,14.71,14.71,0,0,1-9.13,9.25,10.93,10.93,0,0,1-6,.12,12,12,0,0,1-5.44-3.2,12.13,12.13,0,0,1-3.27-5.39,11.06,11.06,0,0,1,0-6A13.39,13.39,0,0,1,197.84,200.19Zm2.1,2.07c-2.22,2.24-3.29,4.45-3.2,6.6A10.72,10.72,0,0,0,206,218q3.24.09,6.57-3.28c2.17-2.21,3.22-4.39,3.14-6.56a10.63,10.63,0,0,0-9.27-9.15Q203.2,198.95,199.94,202.26Z"/>
        <path d="M183.91,212.53l2.65-1.91,18,25-2.65,1.91Z"/>
        <path d="M177.05,216.89l2.79-1.69,11.72,19.47-2.8,1.69Zm13.21,22,2.8-1.68,2.68,4.45-2.8,1.68Z"/>
        <path d="M163.1,223.08a13.26,13.26,0,0,1,6.57-.93,10.78,10.78,0,0,1,5.55,2.33,13,13,0,0,1,4.44,11.4,10.94,10.94,0,0,1-2.51,5.47A14.63,14.63,0,0,1,165,246.06a10.92,10.92,0,0,1-5.53-2.34,13,13,0,0,1-4.44-11.4,10.92,10.92,0,0,1,2.49-5.46A13.32,13.32,0,0,1,163.1,223.08Zm1.06,2.74c-2.94,1.15-4.81,2.72-5.61,4.73a10.72,10.72,0,0,0,4.73,12.13c1.94.94,4.39.83,7.33-.31s4.73-2.7,5.55-4.71a10.63,10.63,0,0,0-4.73-12.13Q168.49,224.14,164.16,225.82Z"/>
        <path d="M102.15,228l24.23,3-.28,2.24a13.94,13.94,0,0,1-1.4,4.9,7.88,7.88,0,0,1-3.06,3.14,17.52,17.52,0,0,1-5.22,1.92l-7.15,1.56a17.14,17.14,0,0,0-3.72,1.23,5.07,5.07,0,0,0-2.08,1.76,6.38,6.38,0,0,0-.89,2.67,5.76,5.76,0,0,0,.52,3.45,5.53,5.53,0,0,0,2.59,2.31,15.18,15.18,0,0,0,4.73,1.24,14.55,14.55,0,0,0,5.45-.15,6.12,6.12,0,0,0,3.33-2,7.28,7.28,0,0,0,1.47-3.76l.07-.54,3.24.4,0,.41a10.48,10.48,0,0,1-1.94,4.93,9.44,9.44,0,0,1-4.58,3.27,16.06,16.06,0,0,1-7.46.53,15.8,15.8,0,0,1-6.56-2.07,8.74,8.74,0,0,1-3.42-3.72A8.47,8.47,0,0,1,99.3,250a8.32,8.32,0,0,1,1.47-4,8.48,8.48,0,0,1,3.15-2.57,20.54,20.54,0,0,1,4.83-1.6l6.52-1.32a14.25,14.25,0,0,0,4.14-1.43,5.68,5.68,0,0,0,2.28-2.28,10.13,10.13,0,0,0,1-3.56l-6.89-.58-14-1.76Z"/>
        <path d="M87.78,221.83A14.64,14.64,0,0,1,94,226.57a12.76,12.76,0,0,1,2.41,7,19.23,19.23,0,0,1-1.74,8.49,18.92,18.92,0,0,1-5,7.13A12.73,12.73,0,0,1,83,252.24,14.65,14.65,0,0,1,75.28,251a14.4,14.4,0,0,1-6.2-4.73,12.73,12.73,0,0,1-2.4-7,21.49,21.49,0,0,1,6.69-15.62,12.7,12.7,0,0,1,6.7-3.09A14.48,14.48,0,0,1,87.78,221.83Zm-1.23,2.87a11.75,11.75,0,0,0-6-1.07,8.58,8.58,0,0,0-5,2.43,18.33,18.33,0,0,0-3.94,6.1,18.13,18.13,0,0,0-1.69,7.05,8.52,8.52,0,0,0,1.68,5.3,11.86,11.86,0,0,0,4.93,3.62,12,12,0,0,0,6.07,1.09,8.56,8.56,0,0,0,5-2.43,21.64,21.64,0,0,0,5.64-13.16,8.61,8.61,0,0,0-1.69-5.3A11.94,11.94,0,0,0,86.55,224.7Z"/>
        <path d="M54.28,200.08l19,15.42-1.43,1.75A14.39,14.39,0,0,1,68,220.66a8,8,0,0,1-4.26,1,17.6,17.6,0,0,1-5.45-1.14l-6.89-2.47a17.28,17.28,0,0,0-3.81-.93,5.09,5.09,0,0,0-2.69.39,6.34,6.34,0,0,0-2.17,1.79,5.74,5.74,0,0,0-1.39,3.2,5.54,5.54,0,0,0,1,3.34,15.43,15.43,0,0,0,3.35,3.56,14.76,14.76,0,0,0,4.7,2.75,6,6,0,0,0,3.91,0,7.27,7.27,0,0,0,3.24-2.4l.35-.43,2.53,2.06-.26.32a10.34,10.34,0,0,1-4.26,3.15,9.53,9.53,0,0,1-5.62.35,16,16,0,0,1-6.6-3.51,15.85,15.85,0,0,1-4.46-5.23,8.71,8.71,0,0,1-.94-5,8.59,8.59,0,0,1,1.91-4.32,8.28,8.28,0,0,1,3.35-2.58,8.43,8.43,0,0,1,4-.51,20.18,20.18,0,0,1,4.94,1.21l6.23,2.33a14.4,14.4,0,0,0,4.27,1,5.77,5.77,0,0,0,3.14-.73,10.17,10.17,0,0,0,2.76-2.48l-5.53-4.14-11-8.94Z"/>
        <path d="M38.68,178.9,53,198.68,51.19,200a14.18,14.18,0,0,1-4.54,2.32,8,8,0,0,1-4.38-.09,17.92,17.92,0,0,1-5-2.5l-6-4.16a17.65,17.65,0,0,0-3.44-1.88,5.09,5.09,0,0,0-2.7-.32,6.28,6.28,0,0,0-2.56,1.17,5.81,5.81,0,0,0-2.17,2.74,5.52,5.52,0,0,0,.08,3.47,15.51,15.51,0,0,0,2.32,4.31,14.93,14.93,0,0,0,3.83,3.87,6.11,6.11,0,0,0,3.77,1,7.26,7.26,0,0,0,3.75-1.49l.44-.32,1.92,2.64-.33.24a10.42,10.42,0,0,1-4.93,2,9.49,9.49,0,0,1-5.52-1.11,16.18,16.18,0,0,1-5.48-5.09,15.87,15.87,0,0,1-3-6.2,8.79,8.79,0,0,1,.38-5.05,8.55,8.55,0,0,1,3-3.68,8.3,8.3,0,0,1,3.9-1.63,8.66,8.66,0,0,1,4,.54A20.81,20.81,0,0,1,33,193.22l5.41,3.86a14.69,14.69,0,0,0,3.87,2,5.75,5.75,0,0,0,3.23.1,10.11,10.11,0,0,0,3.3-1.68l-4.28-5.42-8.31-11.48Z"/>
        <path d="M20.63,158.59l3.54,12.24-2.87.83-3.46-12c-.76-2.63-1.89-4.45-3.41-5.48s-3.53-1.19-6.06-.45-4.09,1.91-4.83,3.59-.73,3.84,0,6.46l3.47,12-2.88.83L.61,164.38a13.72,13.72,0,0,1-.46-6,9.41,9.41,0,0,1,2.29-4.85,10.4,10.4,0,0,1,5-2.95,10.35,10.35,0,0,1,5.81-.18,9.46,9.46,0,0,1,4.54,2.88A13.27,13.27,0,0,1,20.63,158.59Zm12.62,7.7.91,3.14L4.55,178l-.91-3.14Z"/>
        <path d="M27.44,132.09a13.23,13.23,0,0,1-1.4,6.49A10.94,10.94,0,0,1,21.93,143a12,12,0,0,1-6.09,1.65,12,12,0,0,1-6.15-1.44,10.94,10.94,0,0,1-4.26-4.25A13.27,13.27,0,0,1,3.8,132.5a13.42,13.42,0,0,1,1.41-6.56,11,11,0,0,1,4.11-4.37,12,12,0,0,1,6.09-1.65,11.94,11.94,0,0,1,6.14,1.44,10.87,10.87,0,0,1,4.26,4.22A13.35,13.35,0,0,1,27.44,132.09Zm-2.94,0q-.09-4.74-2.49-6.91a9.18,9.18,0,0,0-6.55-2.09A9.19,9.19,0,0,0,9,125.46q-2.32,2.25-2.24,7c0,3.1.88,5.37,2.48,6.83a9.12,9.12,0,0,0,6.55,2.12,9.14,9.14,0,0,0,6.47-2.34C23.8,137.54,24.55,135.24,24.5,132.14Z"/>
        <path d="M28.16,113.93l-.7,3.19-22.2-4.86.63-2.87,6.25,1.37.29-.27Zm-12-2.63-.2.89-4.09-.89.18-.81a8.82,8.82,0,0,1-3-2,7.16,7.16,0,0,1-1.8-3.1,8.48,8.48,0,0,1,0-4.14,7.56,7.56,0,0,1,2-4,6.72,6.72,0,0,1,3.45-1.76,10,10,0,0,1,4,.08l2.2.48-.69,3.19-1.71-.37a6.22,6.22,0,0,0-4.5.33q-1.66,1-2.31,3.87-.73,3.38.95,5.37A9.57,9.57,0,0,0,16.12,111.3Z"/>
        <path d="M38,83.84,36.1,88.37a8.34,8.34,0,0,1-3.6,4.34q-2.27,1.22-5.95-.35L7.3,84.15l1.3-3L28,89.38c1.47.63,2.61.68,3.43.16a6.58,6.58,0,0,0,2.21-3.06l1.62-3.81ZM19.71,76,13.29,91.11,10.71,90l6.41-15.07Z"/>
        <path d="M41.9,77.69l-1.75,2.76L21.81,68.83a9.94,9.94,0,0,1-3.65-3.69,7.31,7.31,0,0,1-.74-4.5,12.73,12.73,0,0,1,2-5.07l1.33-2.1,2.18,1.38-1.58,2.48a7.66,7.66,0,0,0-1.5,4.77c.15,1.37,1.22,2.59,3.19,3.65l.58.37ZM30,59.3,21.38,72.86,19,71.36,27.6,57.8Z"/>
        <path d="M55.71,60.79a13.32,13.32,0,0,1-5.6,3.57,11,11,0,0,1-6,.17A12.95,12.95,0,0,1,35.34,56a10.9,10.9,0,0,1,0-6,14.71,14.71,0,0,1,9.08-9.3,10.94,10.94,0,0,1,6-.15,12,12,0,0,1,5.46,3.17,12.09,12.09,0,0,1,3.3,5.37,11.06,11.06,0,0,1,0,6A13.33,13.33,0,0,1,55.71,60.79Zm-2.1-2.06c2.2-2.26,3.25-4.46,3.15-6.62A9.18,9.18,0,0,0,53.65,46a9.18,9.18,0,0,0-6.2-3q-3.24-.08-6.55,3.31t-3.11,6.58a9.12,9.12,0,0,0,3.1,6.14,9.13,9.13,0,0,0,6.22,3C49.28,62,51.44,61,53.61,58.73Z"/>
        <path d="M69.58,48.38,66.94,50.3,48.82,25.36l2.64-1.92Z"/>
        <path d="M63.08,22.1l-2.79,1.7-2.7-4.44,2.78-1.7ZM76.41,44l-2.79,1.7L61.8,26.28l2.79-1.7Z"/>
        <path d="M90.34,37.71a13.42,13.42,0,0,1-6.57,1,10.9,10.9,0,0,1-5.56-2.31,11.9,11.9,0,0,1-3.68-5.12A12,12,0,0,1,73.71,25a11,11,0,0,1,2.48-5.49,14.65,14.65,0,0,1,12.08-4.78A11,11,0,0,1,93.81,17a12.09,12.09,0,0,1,3.69,5.13,12.05,12.05,0,0,1,.82,6.25,11.07,11.07,0,0,1-2.46,5.48A13.38,13.38,0,0,1,90.34,37.71ZM89.26,35c2.93-1.16,4.8-2.75,5.58-4.76a9.13,9.13,0,0,0-.34-6.86,9.14,9.14,0,0,0-4.44-5.24c-2-.93-4.4-.81-7.33.35S78,21.18,77.2,23.2a9.14,9.14,0,0,0,.32,6.87A9.16,9.16,0,0,0,82,35.3Q84.95,36.68,89.26,35Z"/>
      </g>
      <circle id="base" class="cls-1" cx="127.05" cy="130.34" r="60"/>
    </g>
  </g>
</svg>
